<?xml version="1.0" encoding="UTF-8"?>
<svg width="16px" height="15px" viewBox="0 0 16 15" version="1.1" xmlns="http://www.w3.org/2000/svg" xmlns:xlink="http://www.w3.org/1999/xlink">
    <title>F03DC5ED-EF4B-43D4-93FB-1537B692FC04</title>
    <g id="Barkibu-Widget-Landing" stroke="none" stroke-width="1" fill="none" fill-rule="evenodd">
        <g id="01---00---HomeScreen---Pet-Detail---Assessment-Report-Copy" transform="translate(-1047.000000, -641.000000)" fill="#F95252" fill-rule="nonzero">
            <g id="Card" transform="translate(1005.000000, 347.000000)">
                <g id="Recommendation" transform="translate(14.000000, 234.000000)">
                    <g id="Alert" transform="translate(0.000000, 36.000000)">
                        <g id="Tag" transform="translate(20.000000, 20.000000)">
                            <path d="M9.73575598,19 L22.264244,19 C23.1478996,19 23.864244,18.2836556 23.864244,17.4 C23.864244,17.125221 23.7934784,16.8550726 23.6587649,16.615582 L17.3945209,5.47914819 C16.9612988,4.70897559 15.9857546,4.43582323 15.215582,4.86904532 C14.9601828,5.01270736 14.7491412,5.22374901 14.6054791,5.47914819 L8.34123512,16.615582 C7.90801303,17.3857546 8.18116539,18.3612988 8.95133799,18.7945209 C9.19082862,18.9292343 9.46097701,19 9.73575598,19 Z M16,17 C15.4477153,17 15,16.5522847 15,16 C15,15.4477153 15.4477153,15 16,15 C16.5522847,15 17,15.4477153 17,16 C17,16.5522847 16.5522847,17 16,17 Z M16,14 C15.4477153,14 15,13.5522847 15,13 L15,11 C15,10.4477153 15.4477153,10 16,10 C16.5522847,10 17,10.4477153 17,11 L17,13 C17,13.5522847 16.5522847,14 16,14 Z" id="Shape-Copy"></path>
                        </g>
                    </g>
                </g>
            </g>
        </g>
    </g>
</svg>