<?xml version="1.0" encoding="UTF-8"?>
<svg width="16px" height="11px" viewBox="0 0 16 11" version="1.1" xmlns="http://www.w3.org/2000/svg" xmlns:xlink="http://www.w3.org/1999/xlink">
    <title>4783D194-31E1-4632-8CE3-54090FB37051</title>
    <g id="Barkibu-Widget-Desktop" stroke="none" stroke-width="1" fill="none" fill-rule="evenodd" opacity="0.400000006">
        <g id="00---03---Chat---New-Assessment" transform="translate(-1035.000000, -499.000000)" fill="#000000" fill-rule="nonzero">
            <g id="Card" transform="translate(1005.000000, 418.000000)">
                <g id="Conversation-Popup">
                    <g id="NavBar">
                        <g id="Content" transform="translate(30.000000, 74.000000)">
                            <g id="Arrow-Left" transform="translate(0.000000, 7.000000)">
                                <path d="M3.22941193,4.5833066 L6.35922601,1.56995671 C6.73112576,1.21080747 6.73112576,0.628509208 6.35922594,0.269361865 C5.98732626,-0.0897873095 5.38435525,-0.0897873095 5.01245746,0.269361992 L0.270314913,4.84892109 C0.183969403,4.9360277 0.116284423,5.03874291 0.0711449169,5.151172 C-0.0237149656,5.37416071 -0.0237149656,5.62427608 0.0711448767,5.84726489 C0.116284769,5.959694 0.18396899,6.06240893 0.27031487,6.14951581 L5.01245742,10.7290749 C5.3813202,11.0882241 5.9818272,11.0906018 6.35372499,10.7343857 C6.35556559,10.7326227 6.3573987,10.7308524 6.35922428,10.7290749 C6.731124,10.3728585 6.73358612,9.79293975 6.36472353,9.43379241 C6.36289796,9.43201491 6.36106485,9.43024464 6.35922424,9.42848166 L3.22941016,6.41513177 L15.0515715,6.41513177 C15.5753743,6.41513179 16,6.00506431 16,5.49921995 C16,4.99337559 15.5753743,4.58330813 15.0515715,4.58330813 L3.22941193,4.5833066 Z" id="Path"></path>
                            </g>
                        </g>
                    </g>
                </g>
            </g>
        </g>
    </g>
</svg>