<?xml version="1.0" encoding="UTF-8"?>
<svg width="12px" height="12px" viewBox="0 0 12 12" version="1.1" xmlns="http://www.w3.org/2000/svg" xmlns:xlink="http://www.w3.org/1999/xlink">
    <title>1B617BDB-0EF6-4063-B3EA-3BEC6C942531</title>
    <g id="Barkibu-Widget-Desktop" stroke="none" stroke-width="1" fill="none" fill-rule="evenodd">
        <g id="00---02---Extra-Option" transform="translate(-1318.000000, -589.000000)" fill="#FFFFFF" fill-rule="nonzero">
            <g id="Card" transform="translate(1005.000000, 347.000000)">
                <g id="Content-Card" transform="translate(16.000000, 144.000000)">
                    <g id="01" transform="translate(16.000000, 25.000000)">
                        <g id="Text-Input" transform="translate(0.000000, 55.000000)">
                            <g id="Send-Button" transform="translate(287.000000, 24.000000) rotate(-270.000000) translate(-287.000000, -24.000000) translate(271.000000, 8.000000)">
                                <g id="Arrow" transform="translate(10.000000, 10.000000)">
                                    <path d="M11.2290764,5.34660965 L6.64951667,0.761371022 L6.64951665,0.761371004 C6.56241003,0.677882428 6.45969481,0.612436951 6.3472657,0.568790981 L6.34726563,0.568790952 C6.12427679,0.477069673 5.87416139,0.477069673 5.65117255,0.56879101 L5.65117263,0.568790981 C5.53874352,0.612437317 5.43602857,0.677882061 5.34892168,0.761371003 L0.769361923,5.34660963 L0.769361919,5.34660963 C0.410212692,5.70620422 0.410212692,6.28922465 0.769361927,6.6488174 C1.12851115,7.00841199 1.7108095,7.00841199 2.0699569,6.6488174 L5.08330722,3.6225599 L5.08330722,10.5829521 L5.08330722,10.5829523 C5.0833073,11.089424 5.49337474,11.5 5.99921917,11.5 C6.5050636,11.5 6.91513112,11.089424 6.91513112,10.5829523 L6.91513112,3.62256004 L9.92848144,6.64881753 L9.92848142,6.6488175 C10.2846979,7.00841209 10.8646167,7.01079275 11.2237641,6.65413491 C11.2255416,6.65236973 11.2273119,6.65059727 11.2290748,6.64881757 L11.2290748,6.64881758 C11.5882241,6.29215938 11.5906018,5.71152144 11.2343857,5.35192869 C11.2326227,5.35014897 11.2308524,5.3483765 11.2290749,5.34661131 L11.2290764,5.34660965 Z" id="Path"></path>
                                </g>
                            </g>
                        </g>
                    </g>
                </g>
            </g>
        </g>
    </g>
</svg>