<?xml version="1.0" encoding="UTF-8"?>
<svg width="165px" height="24px" viewBox="0 0 165 24" version="1.1" xmlns="http://www.w3.org/2000/svg" xmlns:xlink="http://www.w3.org/1999/xlink">
    <title>FE5049FC-2F74-4EAD-9000-4206D574D38E</title>
    <g id="Barkibu-Widget-Desktop" stroke="none" stroke-width="1" fill="none" fill-rule="evenodd">
        <g id="00---03---Chat---New-Assessment" transform="translate(-1029.000000, -436.000000)">
            <g id="Card" transform="translate(1005.000000, 418.000000)">
                <g id="Conversation-Popup">
                    <g id="NavBar">
                        <g id="TopBar" transform="translate(24.000000, 18.000000)">
                            <g id="Barkibu-logo">
                                <g id="Full" transform="translate(0.000000, 3.000000)" fill="#FFFFFF">
                                    <g id="Fill-93-+-Group" transform="translate(0.097070, 0.000000)">
                                        <g id="Group">
                                            <path d="M37.1857143,8.976 L40.422862,5.816 C40.6148962,5.628 40.6731087,5.34666667 40.570735,5.09733333 C40.4690305,4.84733333 40.2288205,4.68533333 39.9591697,4.68533333 L39.2365324,4.68533333 C39.0572112,4.68533333 38.8879267,4.75733333 38.7621343,4.88666667 L34.0910867,9.676 L34.0910867,1.154 C34.0910867,0.789333333 33.7946716,0.494 33.4300073,0.494 L32.8873602,0.494 C32.5220269,0.494 32.2269499,0.789333333 32.2269499,1.154 L32.2269499,14.7926667 C32.2269499,15.1586667 32.5220269,15.454 32.8873602,15.454 L33.4300073,15.454 C33.7946716,15.454 34.0910867,15.1586667 34.0910867,14.7926667 L34.0910867,12.09 L35.9057094,10.2713333 L39.3348913,15.172 C39.4593455,15.348 39.6614164,15.454 39.8775385,15.454 L40.5372796,15.454 C40.786188,15.454 41.0116777,15.3173333 41.124757,15.0966667 C41.2385055,14.876 41.2204396,14.6126667 41.0765812,14.4113333 L37.1857143,8.976" id="Fill-89"></path>
                                            <path d="M17.5841758,13.7646667 C15.5641368,13.7646667 14.1523175,12.2473333 14.1523175,10.0766667 C14.1523175,7.90466667 15.5641368,6.38666667 17.5841758,6.38666667 C19.5888254,6.38666667 20.935072,7.87 20.935072,10.0766667 C20.935072,12.2833333 19.5888254,13.7646667 17.5841758,13.7646667 L17.5841758,13.7646667 Z M22.1214017,4.7 L21.5887912,4.7 C21.1819731,4.7 20.8521026,5.02733333 20.8521026,5.43266667 L20.8521026,5.94 L20.7243028,5.81466667 C19.8825641,4.97666667 18.724337,4.53466667 17.3780904,4.53466667 C14.3456899,4.53466667 12.1456606,6.866 12.1456606,10.0766667 C12.1456606,13.2893333 14.3456899,15.618 17.3780904,15.618 C18.7296899,15.618 19.8872479,15.1813333 20.7243028,14.356 L20.8521026,14.23 L20.8521026,14.7206667 C20.8521026,15.1253333 21.1819731,15.454 21.5887912,15.454 L22.1214017,15.454 C22.5268816,15.454 22.8580904,15.1253333 22.8580904,14.7206667 L22.8580904,5.43266667 C22.8580904,5.02733333 22.5268816,4.7 22.1214017,4.7 L22.1214017,4.7 Z" id="Fill-90"></path>
                                            <path d="M30.1968742,4.55733333 C28.6465495,4.71 27.7312088,5.57533333 27.2333919,6.27333333 L27.0989011,6.46333333 L27.0989011,5.43266667 C27.0989011,5.02733333 26.7676923,4.7 26.3608742,4.7 L25.829602,4.7 C25.423453,4.7 25.0922442,5.02733333 25.0922442,5.43266667 L25.0922442,14.7206667 C25.0922442,15.1253333 25.423453,15.454 25.829602,15.454 L26.3608742,15.454 C26.7676923,15.454 27.0989011,15.1253333 27.0989011,14.7206667 L27.0989011,10.6933333 C27.0989011,9.72333333 27.3859487,8.742 27.8891184,8.00133333 C27.9058462,7.97466667 27.9178901,7.94666667 27.9306032,7.91733333 L27.9680733,7.862 C27.9948376,7.838 28.0222711,7.81333333 28.0470281,7.78266667 C28.4505006,7.26466667 29.1744762,6.62666667 30.3253431,6.542 C30.7074042,6.51466667 31.0071648,6.19266667 31.0071648,5.81066667 L31.0071648,5.288 C31.0071648,5.082 30.9181734,4.88266667 30.7656166,4.74333333 C30.6110525,4.60466667 30.4029597,4.536 30.1968742,4.55733333" id="Fill-91"></path>
                                            <path d="M43.8781392,4.7 L43.3448596,4.7 C42.9400488,4.7 42.6095092,5.02733333 42.6095092,5.43266667 L42.6095092,14.7206667 C42.6095092,15.1253333 42.9400488,15.454 43.3448596,15.454 L43.8781392,15.454 C44.283619,15.454 44.6148278,15.1253333 44.6148278,14.7206667 L44.6148278,5.43266667 C44.6148278,5.02733333 44.283619,4.7 43.8781392,4.7" id="Fill-92"></path>
                                            <path d="M67.8676923,4.7 L67.3344127,4.7 C66.9282637,4.7 66.5970549,5.02733333 66.5970549,5.43266667 L66.5970549,10.8586667 C66.5970549,11.4213333 66.4545348,11.9573333 66.1855531,12.4086667 C66.1393846,12.486 66.1065983,12.572 66.0912088,12.6646667 L66.0838486,12.702 L66.0497241,12.7186667 C65.963409,12.7613333 65.8898071,12.8166667 65.8315946,12.88 C65.2936313,13.4513333 64.5395458,13.7646667 63.7018217,13.7646667 C62.1073358,13.7646667 61.0340855,12.6066667 61.0340855,10.8806667 L61.0340855,5.43266667 C61.0340855,5.02733333 60.7042149,4.7 60.298735,4.7 L59.7654554,4.7 C59.3599756,4.7 59.030105,5.02733333 59.030105,5.43266667 L59.030105,10.92 C59.030105,14.006 61.2241123,15.618 63.3926935,15.618 C64.6405812,15.618 65.6174799,15.2206667 66.4705934,14.3706667 L66.5970549,14.2426667 L66.5970549,14.7206667 C66.5970549,15.1253333 66.9282637,15.454 67.3344127,15.454 L67.8676923,15.454 C68.2731722,15.454 68.6023736,15.1253333 68.6023736,14.7206667 L68.6023736,5.43266667 C68.6023736,5.02733333 68.2731722,4.7 67.8676923,4.7" id="Fill-94"></path>
                                            <path d="M52.3276435,4.53466667 C52.0098168,4.53466667 51.7354823,4.55266667 51.487243,4.594 C50.8703248,4.69 50.5852845,5.044 50.637475,5.64333333 C50.6896654,6.254 50.9967863,6.49466667 51.6150427,6.422 C51.7809817,6.40133333 51.9455824,6.38666667 52.1202198,6.38666667 C54.1429353,6.38666667 55.5547546,7.90466667 55.5547546,10.0766667 C55.5547546,12.2473333 54.1429353,13.7646667 52.1202198,13.7646667 C50.4976313,13.7646667 48.8529621,12.8033333 48.8529621,10.9646667 L48.8529621,1.31333333 C48.8529621,0.906666667 48.5217534,0.578666667 48.1169426,0.578666667 L47.5823248,0.578666667 C47.177514,0.578666667 46.8476435,0.906666667 46.8476435,1.31333333 L46.8476435,14.7206667 C46.8476435,15.1253333 47.177514,15.454 47.5823248,15.454 L48.1169426,15.454 C48.5217534,15.454 48.8529621,15.1253333 48.8529621,14.7206667 L48.8529621,14.23 L48.9800928,14.356 C49.8305299,15.1933333 50.9573089,15.618 52.3276435,15.618 C55.3587057,15.618 57.5594042,13.2893333 57.5594042,10.0766667 C57.5594042,6.866 55.3587057,4.53466667 52.3276435,4.53466667" id="Fill-95"></path>
                                            <path d="M5.48936752,4.53466667 C5.17221001,4.53466667 4.89854457,4.55266667 4.65030525,4.594 C4.02602686,4.69133333 3.74700855,5.03533333 3.79852991,5.64333333 C3.85205861,6.254 4.16587057,6.49533333 4.77810501,6.422 C4.94404396,6.40133333 5.10730647,6.38666667 5.28261294,6.38666667 C7.30465934,6.38666667 8.71647863,7.90466667 8.71647863,10.0766667 C8.71647863,12.2473333 7.30465934,13.7646667 5.28261294,13.7646667 C3.6586862,13.7646667 2.0146862,12.8033333 2.0146862,10.9646667 L2.0146862,1.31333333 C2.0146862,0.906666667 1.68481563,0.578666667 1.27799756,0.578666667 L0.746056166,0.578666667 C0.339238095,0.578666667 0.01003663,0.906666667 0.01003663,1.31333333 L0.01003663,14.7206667 C0.01003663,15.1253333 0.339238095,15.454 0.746056166,15.454 L1.27799756,15.454 C1.68481563,15.454 2.0146862,15.1253333 2.0146862,14.7206667 L2.0146862,14.23 L2.14248596,14.356 C2.99225397,15.1933333 4.11836386,15.618 5.48936752,15.618 C8.52176801,15.618 10.7211282,13.2893333 10.7211282,10.0766667 C10.7211282,6.866 8.52176801,4.53466667 5.48936752,4.53466667" id="Fill-96"></path>
                                            <path d="M43.9477436,2 L43.4554469,2 C43.1503333,2 42.9029304,2.2465 42.9029304,2.5515 L42.9029304,3.303 C42.9029304,3.6075 43.1503333,3.854 43.4554469,3.854 L43.9477436,3.854 C44.2523553,3.854 44.5002601,3.6075 44.5002601,3.303 L44.5002601,2.5515 C44.5002601,2.2465 44.2523553,2 43.9477436,2" id="Fill-93"></path>
                                        </g>
                                    </g>
                                </g>
                                <g id="Group-2" transform="translate(82.000000, 0.000000)">
                                    <rect id="Rectangle" stroke="#FFFFFF" opacity="0.119999997" x="0.5" y="0.5" width="82" height="23" rx="6"></rect>
                                    <path d="M15.92,16.048 C16.112,16.048 16.282,15.984 16.43,15.856 C16.578,15.728 16.652,15.572 16.652,15.388 C16.652,15.284 16.628,15.18 16.58,15.076 L16.58,15.076 L13.256,7.96 C13.184,7.8 13.074,7.678 12.926,7.594 C12.778,7.51 12.62,7.468 12.452,7.468 C12.284,7.468 12.126,7.51 11.978,7.594 C11.83,7.678 11.72,7.8 11.648,7.96 L11.648,7.96 L8.336,15.076 C8.288,15.18 8.264,15.284 8.264,15.388 C8.264,15.572 8.34,15.728 8.492,15.856 C8.644,15.984 8.812,16.048 8.996,16.048 C9.132,16.048 9.256,16.014 9.368,15.946 C9.48,15.878 9.568,15.772 9.632,15.628 L9.632,15.628 L10.352,14.02 L14.576,14.02 L15.296,15.628 C15.36,15.772 15.448,15.878 15.56,15.946 C15.672,16.014 15.792,16.048 15.92,16.048 Z M14.048,12.82 L10.88,12.82 L12.464,9.256 L14.048,12.82 Z M20.648,16.108 C21.296,16.108 21.87,16.002 22.37,15.79 C22.87,15.578 23.258,15.282 23.534,14.902 C23.81,14.522 23.948,14.084 23.948,13.588 C23.948,13.132 23.83,12.752 23.594,12.448 C23.358,12.144 23.018,11.894 22.574,11.698 C22.13,11.502 21.552,11.324 20.84,11.164 C20.168,11.012 19.692,10.848 19.412,10.672 C19.132,10.496 18.992,10.244 18.992,9.916 C18.992,9.524 19.15,9.218 19.466,8.998 C19.782,8.778 20.212,8.668 20.756,8.668 C21.204,8.668 21.582,8.726 21.89,8.842 C22.198,8.958 22.516,9.136 22.844,9.376 C22.956,9.44 23.046,9.484 23.114,9.508 C23.182,9.532 23.256,9.544 23.336,9.544 C23.472,9.544 23.59,9.482 23.69,9.358 C23.79,9.234 23.84,9.088 23.84,8.92 C23.84,8.792 23.818,8.686 23.774,8.602 C23.73,8.518 23.656,8.432 23.552,8.344 C22.832,7.736 21.9,7.432 20.756,7.432 C20.132,7.432 19.57,7.542 19.07,7.762 C18.57,7.982 18.18,8.288 17.9,8.68 C17.62,9.072 17.48,9.516 17.48,10.012 C17.48,10.492 17.592,10.888 17.816,11.2 C18.04,11.512 18.372,11.768 18.812,11.968 C19.252,12.168 19.824,12.344 20.528,12.496 C21.208,12.648 21.694,12.806 21.986,12.97 C22.278,13.134 22.424,13.368 22.424,13.672 C22.424,14.064 22.268,14.362 21.956,14.566 C21.644,14.77 21.196,14.872 20.612,14.872 C20.156,14.872 19.74,14.816 19.364,14.704 C18.988,14.592 18.628,14.412 18.284,14.164 C18.1,14.052 17.936,13.996 17.792,13.996 C17.656,13.996 17.538,14.058 17.438,14.182 C17.338,14.306 17.288,14.452 17.288,14.62 C17.288,14.868 17.38,15.06 17.564,15.196 C17.908,15.476 18.354,15.698 18.902,15.862 C19.45,16.026 20.032,16.108 20.648,16.108 Z M28.304,16.108 C28.952,16.108 29.526,16.002 30.026,15.79 C30.526,15.578 30.914,15.282 31.19,14.902 C31.466,14.522 31.604,14.084 31.604,13.588 C31.604,13.132 31.486,12.752 31.25,12.448 C31.014,12.144 30.674,11.894 30.23,11.698 C29.786,11.502 29.208,11.324 28.496,11.164 C27.824,11.012 27.348,10.848 27.068,10.672 C26.788,10.496 26.648,10.244 26.648,9.916 C26.648,9.524 26.806,9.218 27.122,8.998 C27.438,8.778 27.868,8.668 28.412,8.668 C28.86,8.668 29.238,8.726 29.546,8.842 C29.854,8.958 30.172,9.136 30.5,9.376 C30.612,9.44 30.702,9.484 30.77,9.508 C30.838,9.532 30.912,9.544 30.992,9.544 C31.128,9.544 31.246,9.482 31.346,9.358 C31.446,9.234 31.496,9.088 31.496,8.92 C31.496,8.792 31.474,8.686 31.43,8.602 C31.386,8.518 31.312,8.432 31.208,8.344 C30.488,7.736 29.556,7.432 28.412,7.432 C27.788,7.432 27.226,7.542 26.726,7.762 C26.226,7.982 25.836,8.288 25.556,8.68 C25.276,9.072 25.136,9.516 25.136,10.012 C25.136,10.492 25.248,10.888 25.472,11.2 C25.696,11.512 26.028,11.768 26.468,11.968 C26.908,12.168 27.48,12.344 28.184,12.496 C28.864,12.648 29.35,12.806 29.642,12.97 C29.934,13.134 30.08,13.368 30.08,13.672 C30.08,14.064 29.924,14.362 29.612,14.566 C29.3,14.77 28.852,14.872 28.268,14.872 C27.812,14.872 27.396,14.816 27.02,14.704 C26.644,14.592 26.284,14.412 25.94,14.164 C25.756,14.052 25.592,13.996 25.448,13.996 C25.312,13.996 25.194,14.058 25.094,14.182 C24.994,14.306 24.944,14.452 24.944,14.62 C24.944,14.868 25.036,15.06 25.22,15.196 C25.564,15.476 26.01,15.698 26.558,15.862 C27.106,16.026 27.688,16.108 28.304,16.108 Z M33.8,16.072 C34.04,16.072 34.23,16 34.37,15.856 C34.51,15.712 34.58,15.524 34.58,15.292 L34.58,15.292 L34.58,8.248 C34.58,8.016 34.51,7.83 34.37,7.69 C34.23,7.55 34.04,7.48 33.8,7.48 C33.568,7.48 33.382,7.55 33.242,7.69 C33.102,7.83 33.032,8.016 33.032,8.248 L33.032,8.248 L33.032,15.292 C33.032,15.524 33.102,15.712 33.242,15.856 C33.382,16 33.568,16.072 33.8,16.072 Z M39.332,16.108 C39.98,16.108 40.554,16.002 41.054,15.79 C41.554,15.578 41.942,15.282 42.218,14.902 C42.494,14.522 42.632,14.084 42.632,13.588 C42.632,13.132 42.514,12.752 42.278,12.448 C42.042,12.144 41.702,11.894 41.258,11.698 C40.814,11.502 40.236,11.324 39.524,11.164 C38.852,11.012 38.376,10.848 38.096,10.672 C37.816,10.496 37.676,10.244 37.676,9.916 C37.676,9.524 37.834,9.218 38.15,8.998 C38.466,8.778 38.896,8.668 39.44,8.668 C39.888,8.668 40.266,8.726 40.574,8.842 C40.882,8.958 41.2,9.136 41.528,9.376 C41.64,9.44 41.73,9.484 41.798,9.508 C41.866,9.532 41.94,9.544 42.02,9.544 C42.156,9.544 42.274,9.482 42.374,9.358 C42.474,9.234 42.524,9.088 42.524,8.92 C42.524,8.792 42.502,8.686 42.458,8.602 C42.414,8.518 42.34,8.432 42.236,8.344 C41.516,7.736 40.584,7.432 39.44,7.432 C38.816,7.432 38.254,7.542 37.754,7.762 C37.254,7.982 36.864,8.288 36.584,8.68 C36.304,9.072 36.164,9.516 36.164,10.012 C36.164,10.492 36.276,10.888 36.5,11.2 C36.724,11.512 37.056,11.768 37.496,11.968 C37.936,12.168 38.508,12.344 39.212,12.496 C39.892,12.648 40.378,12.806 40.67,12.97 C40.962,13.134 41.108,13.368 41.108,13.672 C41.108,14.064 40.952,14.362 40.64,14.566 C40.328,14.77 39.88,14.872 39.296,14.872 C38.84,14.872 38.424,14.816 38.048,14.704 C37.672,14.592 37.312,14.412 36.968,14.164 C36.784,14.052 36.62,13.996 36.476,13.996 C36.34,13.996 36.222,14.058 36.122,14.182 C36.022,14.306 35.972,14.452 35.972,14.62 C35.972,14.868 36.064,15.06 36.248,15.196 C36.592,15.476 37.038,15.698 37.586,15.862 C38.134,16.026 38.716,16.108 39.332,16.108 Z M46.652,16.06 C46.884,16.06 47.07,15.99 47.21,15.85 C47.35,15.71 47.42,15.524 47.42,15.292 L47.42,15.292 L47.42,8.812 L49.604,8.812 C50.084,8.812 50.324,8.6 50.324,8.176 C50.324,7.752 50.084,7.54 49.604,7.54 L49.604,7.54 L43.688,7.54 C43.208,7.54 42.968,7.752 42.968,8.176 C42.968,8.6 43.208,8.812 43.688,8.812 L43.688,8.812 L45.872,8.812 L45.872,15.292 C45.872,15.524 45.942,15.71 46.082,15.85 C46.222,15.99 46.412,16.06 46.652,16.06 Z M57.2,16.048 C57.392,16.048 57.562,15.984 57.71,15.856 C57.858,15.728 57.932,15.572 57.932,15.388 C57.932,15.284 57.908,15.18 57.86,15.076 L57.86,15.076 L54.536,7.96 C54.464,7.8 54.354,7.678 54.206,7.594 C54.058,7.51 53.9,7.468 53.732,7.468 C53.564,7.468 53.406,7.51 53.258,7.594 C53.11,7.678 53,7.8 52.928,7.96 L52.928,7.96 L49.616,15.076 C49.568,15.18 49.544,15.284 49.544,15.388 C49.544,15.572 49.62,15.728 49.772,15.856 C49.924,15.984 50.092,16.048 50.276,16.048 C50.412,16.048 50.536,16.014 50.648,15.946 C50.76,15.878 50.848,15.772 50.912,15.628 L50.912,15.628 L51.632,14.02 L55.856,14.02 L56.576,15.628 C56.64,15.772 56.728,15.878 56.84,15.946 C56.952,16.014 57.072,16.048 57.2,16.048 Z M55.328,12.82 L52.16,12.82 L53.744,9.256 L55.328,12.82 Z M65.504,16.072 C65.72,16.072 65.896,16 66.032,15.856 C66.168,15.712 66.236,15.524 66.236,15.292 L66.236,15.292 L66.236,8.248 C66.236,8.016 66.17,7.83 66.038,7.69 C65.906,7.55 65.728,7.48 65.504,7.48 C65.288,7.48 65.114,7.55 64.982,7.69 C64.85,7.83 64.784,8.016 64.784,8.248 L64.784,8.248 L64.784,13.432 L60.416,7.756 C60.28,7.572 60.088,7.48 59.84,7.48 C59.616,7.48 59.436,7.55 59.3,7.69 C59.164,7.83 59.096,8.016 59.096,8.248 L59.096,8.248 L59.096,15.292 C59.096,15.524 59.16,15.712 59.288,15.856 C59.416,16 59.592,16.072 59.816,16.072 C60.04,16.072 60.216,16 60.344,15.856 C60.472,15.712 60.536,15.524 60.536,15.292 L60.536,15.292 L60.536,10.096 L64.916,15.796 C65.052,15.98 65.248,16.072 65.504,16.072 Z M70.832,16.06 C71.064,16.06 71.25,15.99 71.39,15.85 C71.53,15.71 71.6,15.524 71.6,15.292 L71.6,15.292 L71.6,8.812 L73.784,8.812 C74.264,8.812 74.504,8.6 74.504,8.176 C74.504,7.752 74.264,7.54 73.784,7.54 L73.784,7.54 L67.868,7.54 C67.388,7.54 67.148,7.752 67.148,8.176 C67.148,8.6 67.388,8.812 67.868,8.812 L67.868,8.812 L70.052,8.812 L70.052,15.292 C70.052,15.524 70.122,15.71 70.262,15.85 C70.402,15.99 70.592,16.06 70.832,16.06 Z" id="ASSISTANT" fill="#FFFFFF" fill-rule="nonzero" opacity="0.800000012"></path>
                                </g>
                            </g>
                        </g>
                    </g>
                </g>
            </g>
        </g>
    </g>
</svg>