<?xml version="1.0" encoding="utf-8"?>
<svg version="1.1" id="Layer_1" xmlns="http://www.w3.org/2000/svg" xmlns:xlink="http://www.w3.org/1999/xlink" x="0px" y="0px"
	 viewBox="0 0 114.3 104.3" style="enable-background:new 0 0 114.3 104.3;" xml:space="preserve">
<style type="text/css">
.st0 {
  fill: #fff;
}

.st1 {
  fill: url(#SVGID_1_);
}
</style>
<g>
	<linearGradient id="SVGID_1_" gradientUnits="userSpaceOnUse" x1="50%" y1="0%" x2="50%" y2="100%" gradientTransform="rotate(45)">
		<stop offset="0" stop-color="#FFB548">
            <animate attributeName="stop-color" values="#FFB548; #FF6B00; #FFB548" dur="3s" repeatCount="indefinite"></animate>
        </stop>
        <stop offset="1" stop-color="#FF6B00">
            <animate attributeName="stop-color" values="#FF6B00; #FFB548; #FF6B00" dur="3s" repeatCount="indefinite"></animate>
        </stop>
	</linearGradient>
	<path class="st1" d="M29.1,104.3c-0.8,0-1.6-0.1-2.4-0.4c-2.6-1-4.3-3.4-4.3-6.2v-17h-8.3C6.3,80.6,0,74.3,0,66.5V14.1
		C0,6.3,6.3,0,14.1,0h86c7.8,0,14.1,6.3,14.1,14.1v52.3c0,7.8-6.3,14.1-14.1,14.1H52.9l-18.7,21.4C32.8,103.5,31,104.3,29.1,104.3z"
		/>
</g>
<path class="st0" d="M100.1,5.9h-86c-4.6,0-8.3,3.7-8.3,8.3v52.3c0,4.6,3.7,8.3,8.3,8.3h11.2c1.6,0,2.9,1.3,2.9,2.9v20
	c0,0.5,0.3,0.7,0.5,0.8c0.2,0.1,0.6,0.1,0.9-0.2l19.6-22.4c0.6-0.6,1.4-1,2.2-1h48.6c4.6,0,8.3-3.7,8.3-8.3V14.1
	C108.4,9.6,104.7,5.9,100.1,5.9z M57.1,65.7c-14,0-25.3-11.3-25.3-25.3c0-14,11.3-25.3,25.3-25.3s25.3,11.3,25.3,25.3
	C82.4,54.4,71.1,65.7,57.1,65.7z"/>
<path class="st0" transform="rotate(45 45 45) translate(-7, -7)" d="M77.9,19.6c-11.5-11.5-30.1-11.5-41.5,0c-11.5,11.5-11.5,30.1,0,41.5s30.1,11.5,41.5,0
	C89.4,49.7,89.4,31.1,77.9,19.6z M64,62.8l-13.6,0c-1.2,0-2.2-1-2.2-2.2l0-11.1l-11.1,0c-1.2,0-2.2-1-2.2-2.2l0-13.6
	c0-1.2,1-2.2,2.2-2.2l11.1,0l0-11.1c0-1.2,1-2.2,2.2-2.2L64,18c1.2,0,2.2,1,2.2,2.2l0,11.1l11.1,0c1.2,0,2.2,1,2.2,2.2l0,13.6
	c0,1.2-1,2.2-2.2,2.2l-11.1,0l0,11.1C66.2,61.8,65.2,62.8,64,62.8z"/>
</svg>
