<svg xmlns="http://www.w3.org/2000/svg" viewBox="0 0 71 16">
    <g fill="none" fill-rule="evenodd">
        <g fill="#FFF" fill-rule="nonzero">
            <g>
                <g>
                    <g>
                        <path d="M3.9 3.2v3.4h6.5v3.2H3.9v5.7H0V0h12v3.2zM24.5 12.3v3.2h-12V0h3.9v12.3z"/>
                        <path d="M32 16c-5.1 0-8.5-3.2-8.5-8s3.4-8 8.5-8c5 0 8.5 3.2 8.5 8s-3.4 8-8.5 8zm0-3.3c2.7 0 4.5-1.8 4.5-4.7 0-2.8-1.8-4.7-4.5-4.7-2.8 0-4.5 1.9-4.5 4.7 0 2.9 1.7 4.7 4.5 4.7zM49.5 16c-5.1 0-8.5-3.2-8.5-8s3.4-8 8.5-8c5 0 8.5 3.2 8.5 8s-3.4 8-8.5 8zm0-3.3c2.7 0 4.5-1.8 4.5-4.7 0-2.8-1.8-4.7-4.5-4.7C46.7 3.3 45 5.2 45 8c0 2.9 1.7 4.7 4.5 4.7zM62.4 3.2v3.4h6.5v3.2h-6.5v5.7h-3.9V0h12v3.2z"/>
                    </g>
                </g>
            </g>
        </g>
    </g>
</svg>
