<?xml version="1.0" encoding="utf-8"?>
<!-- Generator: Adobe Illustrator 24.3.0, SVG Export Plug-In . SVG Version: 6.00 Build 0)  -->
<svg version="1.1" id="Layer_1" xmlns="http://www.w3.org/2000/svg" xmlns:xlink="http://www.w3.org/1999/xlink" x="0px" y="0px"
	 viewBox="0 0 154.5 34" style="enable-background:new 0 0 154.5 34;" xml:space="preserve">
<style type="text/css">
	.st0{fill:#ffffff;}
</style>
<g>
	<path class="st0" d="M5.3,0.2C2.5,0.2,0,2.4,0,5.1v23.8c0,1.3,0.6,2.6,1.6,3.5c1.1,1.1,2.2,1.4,3.7,1.4c1.4,0,2.7-0.6,3.5-1.4
		c1-0.9,1.7-2.3,1.7-3.6l0-23.8C10.6,2.4,8.1,0.2,5.3,0.2"/>
	<path class="st0" d="M83.7,26.2L80.5,5.9c-0.4-2.4-1.3-5.6-5.3-5.6c-3.6,0-4.1,1.2-6,4.8l-4.4,10.5L60.3,5.1
		c-1.9-3.6-2.4-4.8-6-4.8c-4,0-4.9,3.2-5.3,5.6l-3.2,20.4c-0.1,0.5-0.1,1.1-0.2,1.6c-0.4,2.9,2.2,5.7,5.4,5.8c4.1,0,4.9-3.1,5.1-4.2
		l1.4-6.8l2.5,6.6c0.9,1.8,2,4.4,4.8,4.4c2.7,0,4-2.6,4.8-4.4l2.6-6.7l1.2,6.9c0.2,1,1.1,4.2,5.1,4.2c3.2,0,5.8-2.8,5.4-5.7
		C83.8,27.3,83.8,26.8,83.7,26.2"/>
	<path class="st0" d="M99.8,11.9c-0.9-0.3-2-1.3-1.7-2.3c0.3-1.1,1.4-1.5,2.4-1.3c1.1,0.3,2,1.2,2.9,1.8c1.5,1.1,3.4,1.7,5.2,0.7
		c1.8-1,2.2-3.4,1.4-5.2c-1.2-2.6-3.7-4-6.3-4.7c-4.1-1-10.8-1.3-14.3,4.2c-1.1,1.6-2.3,6.3-0.5,9.9c1.8,3.8,6.2,5,9.9,6
		c1.1,0.3,2.7,1.1,2.3,2.5c-0.3,1-1.3,1.3-2.3,1.2c-1.5-0.1-2.6-1.1-3.8-1.9c-1.3-0.9-2.9-1.5-4.4-1.5c-3.2,0-4.6,3.8-3.7,6.5
		c0.3,0.7,0.7,1.7,1.3,2.2c0.5,0.5,1.1,1,1.7,1.4c4.1,3.2,13.1,3.7,18.1-0.1c2.1-1.7,3.4-4.4,3.7-7.4C112.2,16.3,105.4,14,99.8,11.9
		"/>
	<path class="st0" d="M126.8,11.8c6.1,0,11,5,11,11.1s-4.9,11.1-11,11.1c-6.1,0-11-5-11-11.1C115.8,16.7,120.7,11.8,126.8,11.8"/>
	<path class="st0" d="M121.1,10.7c2.9,0,5.3-2.4,5.3-5.3c0-2.9-2.4-5.3-5.3-5.3c-2.9,0-5.3,2.4-5.3,5.3
		C115.8,8.3,118.2,10.7,121.1,10.7"/>
	<path class="st0" d="M133.8,10.8c2.9,0,5.2-2.3,5.2-5.2c0-2.9-2.3-5.2-5.2-5.2c-2.9,0-5.2,2.3-5.2,5.2
		C128.6,8.4,130.9,10.8,133.8,10.8"/>
	<path class="st0" d="M148.5,14c0-2.9-2.3-5.2-5.2-5.2c-2.9,0-5.2,2.3-5.2,5.2c0,2.9,2.3,5.2,5.2,5.2
		C146.2,19.2,148.5,16.8,148.5,14"/>
	<path class="st0" d="M145.4,20.9c-2.9,0-5.3,2.4-5.3,5.3c0,2.9,2.4,5.3,5.3,5.3c2.9,0,5.3-2.4,5.3-5.3
		C150.7,23.3,148.4,20.9,145.4,20.9"/>
	<path class="st0" d="M43,26.5L35,7.4c-1.4-3.5-2.5-7.2-6.8-7.2c-4.4,0-5.5,3.7-7,7.2l-7.9,19c-1.2,3.2-0.3,5.8,2.5,7
		c2.8,1.2,5.5-0.1,6.9-3.1l1.7-3.5h8l1.5,3.5c1.1,3,4,4.3,6.8,3.1C43.3,32.3,44.3,29.8,43,26.5 M28.1,21.8c-1.5,0-2.7-1.2-2.7-2.7
		c0-1.5,1.2-2.7,2.7-2.7c1.5,0,2.7,1.2,2.7,2.7C30.7,20.6,29.5,21.8,28.1,21.8"/>
	<path class="st0" d="M151.6,18.2h-0.5v-0.3h1.4v0.3H152v1.3h-0.4V18.2z M152.8,17.9h0.4l0.4,0.7l0.4-0.7h0.4v1.7h-0.4v-1.1
		l-0.5,0.7h0l-0.5-0.7v1.1h-0.4V17.9z"/>
</g>
</svg>
