<?xml version="1.0" encoding="UTF-8" standalone="no"?>
<svg
   xmlns:dc="http://purl.org/dc/elements/1.1/"
   xmlns:cc="http://creativecommons.org/ns#"
   xmlns:rdf="http://www.w3.org/1999/02/22-rdf-syntax-ns#"
   xmlns:svg="http://www.w3.org/2000/svg"
   xmlns="http://www.w3.org/2000/svg"
   xmlns:sodipodi="http://sodipodi.sourceforge.net/DTD/sodipodi-0.dtd"
   xmlns:inkscape="http://www.inkscape.org/namespaces/inkscape"
   version="1.1"
   id="svg2"
   xml:space="preserve"
   width="862.82666"
   height="295.23999"
   viewBox="0 0 862.82666 295.23999"
   sodipodi:docname="F2F_White.eps"><metadata
     id="metadata8"><rdf:RDF><cc:Work
         rdf:about=""><dc:format>image/svg+xml</dc:format><dc:type
           rdf:resource="http://purl.org/dc/dcmitype/StillImage" /></cc:Work></rdf:RDF></metadata><defs
     id="defs6" /><sodipodi:namedview
     pagecolor="#ffffff"
     bordercolor="#666666"
     borderopacity="1"
     objecttolerance="10"
     gridtolerance="10"
     guidetolerance="10"
     inkscape:pageopacity="0"
     inkscape:pageshadow="2"
     inkscape:window-width="640"
     inkscape:window-height="480"
     id="namedview4" /><g
     id="g10"
     inkscape:groupmode="layer"
     inkscape:label="ink_ext_XXXXXX"
     transform="matrix(1.3333333,0,0,-1.3333333,0,295.24)"><g
       id="g12"
       transform="scale(0.1)"><path
         d="m 1998.38,2038.29 c -28.41,28.25 -59.7,53.83 -94.12,76.48 -83.4,54.92 -173.96,86.9 -272.88,96.33 -74.98,7.14 -148.15,0.45 -219.74,-20.52 -121.57,-35.62 -223.23,-104.66 -304.32,-205.9 -4.27,-5.33 -10.47,-9 -16.4,-13.97 -41.13,49.88 -83.42,93.62 -133.002,130 -107.426,78.85 -227.801,115.34 -357.395,113.58 C 475.84,2212.6 360.688,2174.2 258.039,2097.58 123.711,1997.33 42.8945,1861.86 10.375,1694.75 -11.457,1582.57 2.88672,1472.74 37.3047,1365.12 68.75,1266.79 115.336,1176.18 170.02,1090.13 292.688,897.102 443.66,729.75 608.215,575.34 680.973,507.07 756.449,441.922 831.234,376.02 c 24.657,-21.731 49.762,-43.411 76.895,-61.481 39.543,-26.348 88.023,-1.988 93.881,46.07 3.43,28.09 -8.998,49.129 -30.623,66.621 C 794.516,570.332 626.523,723.75 475.477,896.332 369.367,1017.56 272.09,1145.61 200.879,1293.15 c -30.824,63.86 -56.289,130.12 -67.934,200.3 -11.023,66.46 -9.922,133.52 5.414,200.46 16.852,73.53 46.106,140.29 91.797,198.25 103.992,131.92 237.602,197.56 403.067,190.61 125.32,-5.26 230.379,-56.79 319.578,-146.58 35.601,-35.84 61.309,-79.14 87.269,-122.45 26.14,-43.61 81.54,-43.12 107.85,0.09 5.43,8.92 9.9,18.47 15.12,27.55 128.68,223.72 399.03,302.46 618.07,195.72 72.42,1.47 144.84,1.86 217.27,1.19"
         style="fill:#ffffff;fill-opacity:1;fill-rule:nonzero;stroke:none"
         id="path14" /><path
         d="m 1645.57,1615.73 c 4.32,52.09 -19.82,90.34 -59.4,119.4 -14.33,10.52 -29.66,19.59 -43.83,30.32 -28.67,21.72 -55.64,46.14 -68.35,81.43 -9.27,25.78 -13.34,53.58 -20.68,84.49 -8.77,8.11 -21.15,2.26 -32.68,-3.45 -30.25,-14.98 -51.61,-41.49 -58.34,-73.38 -10.19,-48.25 -38.21,-76.96 -75.23,-103.24 -49.71,-35.29 -80.46,-84.54 -94.28,-147.34 -19.43,-88.22 -56.18,-168.44 -116.3,-235.97 -47.74,-53.62 -94.796,-107.97 -140.484,-163.49 -60.949,-74.08 -117.922,-151.39 -142.418,-247.93 -10.32,-40.679 -18.062,-82.058 -7.39,-125.09 13.085,-52.781 40.582,-97.031 73.46,-137.378 85.754,-105.223 188.282,-189.832 302.742,-259.071 44.07,-26.66 89.16,-50.922 139.22,-63.133 21.02,-5.128 41.59,-8.039 60.35,8.762 89.69,80.262 182.74,156.77 268.73,241.078 8.51,8.344 16.94,16.793 25.33,25.274 -2.63,28.66 -3.49,57.34 -2.56,85.547 1.22,37.113 5.03,74.621 11.36,111.793 -43.76,-47.661 -88.94,-94.012 -134.99,-139.52 -3.59,-3.543 -8.82,-5.293 -13.92,-8.242 -3.18,5.039 -5.83,7.922 -6.96,11.34 -2.1,6.34 -3.67,12.929 -4.84,19.531 -9.53,53.879 -1.45,104.109 22.32,153.668 38.92,81.16 59.38,167.451 55.15,259.091 -1.9,41.36 -12.57,78.76 -36.24,112.99 -21.39,30.93 -33.11,66.44 -31.78,105.43 0.9,26.47 7.21,30.73 32.48,37.03 27.52,6.86 57.51,12.88 79.98,28.98 21.51,15.42 37.86,41.58 50.66,66.29 10.17,19.61 -7.92,37.75 -16.18,55.6 -10.13,21.89 -17.04,43.8 -14.93,69.19"
         style="fill:#ffffff;fill-opacity:1;fill-rule:nonzero;stroke:none"
         id="path16" /><path
         d="m 714.082,845.082 c -8.133,15.547 -17.91,30.43 -24.129,46.77 -35.933,94.437 -43.449,191.768 -24.953,291.368 4.68,25.19 1.164,46.82 -11.094,71.12 -15.09,29.93 -22.566,64.89 -28.89,98.57 -17.793,94.78 -73.051,155.14 -156.766,189.81 -13.152,5.45 -29.078,3.9 -43.762,5.05 -42.656,3.33 -85.05,7.73 -120.75,35.91 -24.347,19.22 -41.715,42.39 -43.906,76.37 -0.727,11.26 -8.887,22.35 -14.844,32.78 -3.199,5.6 -9.433,9.22 -13.429,14.46 -18.653,24.42 -11.821,47.05 17.058,53.9 36.024,8.54 72.41,15.41 108.528,23.53 34.226,7.7 68.66,14.82 102.273,24.84 12.461,3.71 24.734,13.09 33.84,23.09 35.949,39.5 74.183,74.59 125.203,92.2 77.086,26.6 145.769,11.71 206.164,-43.62 43.551,-39.89 71.141,-90.75 84.836,-148.96 9.703,-41.22 28.602,-76.3 55.277,-107.68 33.66,-39.59 66.992,-79.49 100.392,-119.32 2.99,-3.56 5.42,-7.63 10.07,-14.25 -6.46,-11.53 -11.78,-24.95 -20.32,-35.58 -43.79,-54.52 -87.798,-108.88 -132.876,-162.24 -64.102,-75.89 -129.277,-150.74 -171.816,-243.13 -18.965,-41.19 -31.618,-84.41 -36.032,-129.488 -2.355,-24.062 2.02,-48.844 3.356,-73.301 -1.145,-0.73 -2.285,-1.472 -3.43,-2.199"
         style="fill:#ffffff;fill-opacity:1;fill-rule:nonzero;stroke:none"
         id="path18" /><g
         id="g20"
         transform="scale(10)"><text
           transform="matrix(0.98014,0,0,-1,167.967,119.956)"
           style="font-variant:normal;font-weight:normal;font-size:110.07px;font-family:MarsCentra;-inkscape-font-specification:MarsCentra-Book;writing-mode:lr-tb;fill:#ffffff;fill-opacity:1;fill-rule:nonzero;stroke:none"
           id="text24"><tspan
             x="0 55.144001 141.54788 202.19533 261.5228 316.44757"
             y="0"
             sodipodi:role="line"
             id="tspan22">FOSTER</tspan></text><text
           transform="matrix(0.98014,0,0,-1,169.57989,30.0501)"
           style="font-variant:normal;font-weight:bold;font-size:110.07px;font-family:MarsCentra;-inkscape-font-specification:MarsCentra-Bold;writing-mode:lr-tb;fill:#ffffff;fill-opacity:1;fill-rule:nonzero;stroke:none"
           id="text28"><tspan
             x="0 57.457134 134.7245 204.28809 265.48669 339.12296 396.57928"
             y="0"
             sodipodi:role="line"
             id="tspan26">FUREVER</tspan></text><text
           transform="matrix(0.98014,0,0,-1,549.43805,120.988)"
           style="font-variant:normal;font-weight:800;font-size:57.2456px;font-family:MarsCentra;-inkscape-font-specification:MarsCentra-Extrabold;writing-mode:lr-tb;fill:#ffffff;fill-opacity:1;fill-rule:nonzero;stroke:none"
           id="text32"><tspan
             x="0 32.516098"
             y="0"
             sodipodi:role="line"
             id="tspan30">TO</tspan></text><text
           transform="matrix(0.980139,0,0,-1,621.848,84.6109)"
           style="font-variant:normal;font-weight:normal;font-size:33.3972px;font-family:MarsCentra;-inkscape-font-specification:MarsCentra-Book;writing-mode:lr-tb;fill:#ffffff;fill-opacity:1;fill-rule:nonzero;stroke:none"
           id="text36"><tspan
             x="0"
             y="0"
             id="tspan34">™</tspan></text></g></g></g></svg>
