<svg width="181px" height="24px" viewBox="0 0 151 20" version="1.1" xmlns="http://www.w3.org/2000/svg" xmlns:xlink="http://www.w3.org/1999/xlink">
    <g id="TSC-Mobile" stroke="none" stroke-width="1" fill="none" fill-rule="evenodd">
        <g id="00---01---TSC---Home" transform="translate(-28.000000, -65.000000)">
            <g id="Card" transform="translate(16.000000, 47.000000)">
                <g id="TopBar" transform="translate(12.000000, 16.000000)">
                    <g id="poweredby-vetinsight-tsc" transform="translate(0.000000, 2.000000)">
                        <g id="White_Powered-by-VetInsight" fill="#FFFFFE">
                            <g id="Group-4">
                                <path d="M1.11451429,0.729904762 L0.515047619,0.729904762 L0.515047619,1.78590476 L1.11451429,1.78590476 C1.50430476,1.78590476 1.74689524,1.57226667 1.74689524,1.25805714 C1.74689524,0.91032381 1.5000381,0.729904762 1.11451429,0.729904762 Z M1.09775238,2.25097143 L0.515047619,2.25097143 L0.515047619,3.1936 L0,3.1936 L0,0.26087619 L1.15626667,0.26087619 C1.8392381,0.26087619 2.27078095,0.6464 2.27078095,1.24525714 C2.27078095,1.90750476 1.74293333,2.25097143 1.09775238,2.25097143 L1.09775238,2.25097143 Z" id="Fill-1"></path>
                                <path d="M4.7512381,0.683885714 C4.20327619,0.685409524 3.76015238,1.13066667 3.76136892,1.67862857 C3.76136892,1.6935619 3.76198095,1.70849524 3.76259048,1.72312381 C3.73973333,2.2784 4.17127619,2.74681905 4.72655238,2.76967619 C4.73752381,2.77028571 4.74849524,2.77059048 4.75977143,2.77059048 C5.30773333,2.76937143 5.75085714,2.32411429 5.7496406,1.77615238 C5.7496406,1.76121905 5.74933333,1.74628571 5.74841905,1.73135238 C5.77127619,1.17607619 5.33973333,0.707657143 4.78445714,0.684495238 C4.77348571,0.684190476 4.76220952,0.683885714 4.7512381,0.683885714 Z M4.7512381,3.24388571 C3.92868571,3.26582857 3.24419048,2.61668571 3.22224762,1.7944381 C3.22194286,1.77340952 3.2216381,1.75238095 3.22194286,1.73135238 C3.21249524,0.90087619 3.87779048,0.220038095 4.70826667,0.210285714 C4.72533333,0.209980952 4.74270476,0.209980952 4.75977143,0.210590476 C5.58232381,0.188647619 6.26651429,0.837485714 6.2887619,1.6600381 C6.28906667,1.68106667 6.28937143,1.70209524 6.28906667,1.72312381 C6.29851429,2.55329524 5.63352381,3.2344381 4.80304762,3.24419048 C4.78567619,3.24449524 4.76830476,3.24449524 4.7512381,3.24388571 L4.7512381,3.24388571 Z" id="Fill-3"></path>
                                <polyline id="Fill-5" points="9.05782857 0.252342857 9.4936381 0.252342857 10.2144 2.43535238 10.9141333 0.26087619 11.4544762 0.26087619 10.432 3.21462857 9.98765714 3.21462857 9.2672 1.1072 8.5464381 3.21462857 8.1024 3.21462857 7.07992381 0.26087619 7.63733333 0.26087619 8.33706667 2.43535238 9.05782857 0.252342857"></polyline>
                                <polyline id="Fill-6" points="14.6663619 0.72167619 13.0072381 0.72167619 13.0072381 1.48419048 14.4777143 1.48419048 14.4777143 1.94499048 13.0072381 1.94499048 13.0072381 2.7328 14.6873905 2.7328 14.6873905 3.1936 12.491581 3.1936 12.491581 0.26087619 14.6663619 0.26087619 14.6663619 0.72167619"></polyline>
                                <path d="M17.1254857,0.729904762 L16.3754667,0.729904762 L16.3754667,1.71459048 L17.1297524,1.71459048 C17.4985143,1.71459048 17.733181,1.52198095 17.733181,1.22026667 C17.733181,0.89752381 17.5067429,0.729904762 17.1254857,0.729904762 Z M17.7417143,3.1936 L17.0209524,2.17142857 L16.3754667,2.17142857 L16.3754667,3.1936 L15.8607238,3.1936 L15.8607238,0.26087619 L17.1678476,0.26087619 C17.8422857,0.26087619 18.2570667,0.616838095 18.2570667,1.19100952 C18.2726095,1.6192 17.9769905,1.99649524 17.5573333,2.08335238 L18.3491048,3.1936 L17.7417143,3.1936 L17.7417143,3.1936 Z" id="Fill-7"></path>
                                <polyline id="Fill-8" points="21.6164571 0.72167619 19.9570286 0.72167619 19.9570286 1.48419048 21.4281143 1.48419048 21.4281143 1.94499048 19.9570286 1.94499048 19.9570286 2.7328 21.6374857 2.7328 21.6374857 3.1936 19.441981 3.1936 19.441981 0.26087619 21.6164571 0.26087619 21.6164571 0.72167619"></polyline>
                                <path d="M23.9043048,0.729904762 L23.3258667,0.729904762 L23.3258667,2.72426667 L23.9043048,2.72426667 C24.4315429,2.75870476 24.8868571,2.35885714 24.9212952,1.83131429 C24.9231238,1.79809524 24.9237333,1.76457143 24.9222095,1.73135238 C24.9441524,1.19954286 24.5308952,0.750933333 23.9993905,0.729295238 C23.9676952,0.72807619 23.936,0.72807619 23.9043048,0.729904762 Z M23.9043048,3.1936 L22.810819,3.1936 L22.810819,0.26087619 L23.9043048,0.26087619 C24.7140571,0.211504762 25.4104381,0.828038095 25.4598095,1.63809524 C25.509181,2.44784762 24.8926476,3.14453333 24.0825905,3.1936 C24.0231619,3.19725714 23.9634286,3.19725714 23.9043048,3.1936 L23.9043048,3.1936 Z" id="Fill-9"></path>
                                <path d="M30.3195429,2.33051429 C30.3195429,2.07908571 30.1229714,1.93249524 29.7161143,1.93249524 L28.8993524,1.93249524 L28.8993524,2.73706667 L29.7542095,2.73706667 C30.1059048,2.73706667 30.3195429,2.59870476 30.3195429,2.33051429 Z M30.1561905,1.09470476 C30.1561905,0.855771429 29.9721143,0.717409524 29.6411429,0.717409524 L28.8993524,0.717409524 L28.8993524,1.49668571 L29.6033524,1.49668571 C29.9343238,1.49668571 30.1561905,1.36685714 30.1561905,1.09470476 Z M30.6718476,1.01089524 C30.6794667,1.29493333 30.5136762,1.55550476 30.2528,1.66857143 C30.5944381,1.73531429 30.8394667,2.03672381 30.8352,2.38506667 C30.8352,2.91291429 30.4036571,3.1936 29.7499429,3.1936 L28.3922286,3.1936 L28.3922286,0.26087619 L29.7081905,0.26087619 C30.298819,0.26087619 30.6718476,0.549790476 30.6718476,1.01089524 L30.6718476,1.01089524 Z" id="Fill-10"></path>
                                <polyline id="Fill-11" points="33.198019 3.1936 32.6784 3.1936 32.6784 2.03733333 31.5132952 0.26087619 32.1206857 0.26087619 32.9423238 1.55977143 33.771581 0.26087619 34.3625143 0.26087619 33.198019 2.02453333 33.198019 3.1936"></polyline>
                            </g>
                            <path d="M22.1603048,16.1037714 C21.4710857,16.1037714 21.4710857,15.0267429 22.1603048,15.0267429 L26.2531048,15.0267429 C26.9424762,15.0267429 26.9424762,16.1037714 26.2531048,16.1037714 L22.1603048,16.1037714" id="Fill-12"></path>
                            <path d="M23.2374857,19.2917333 C22.5481143,19.2917333 22.5481143,18.2147048 23.2374857,18.2147048 L25.1760762,18.2147048 C25.8654476,18.2147048 25.8654476,19.2917333 25.1760762,19.2917333 L23.2374857,19.2917333" id="Fill-13"></path>
                            <path d="M20.9110857,13.6911238 C21.3848381,14.2081524 20.5662476,14.8973714 20.0923429,14.3373714 C19.3103238,13.3756952 18.8842667,12.1735619 18.8860894,10.9339429 C18.897219,7.99542857 21.2882286,5.62224762 24.2267429,5.63333248 C27.1495619,5.64434286 29.5163429,8.01112381 29.5273201,10.9339429 C29.5291429,12.1735619 29.1030857,13.3756952 28.3210667,14.3373714 C27.8471619,14.8973714 27.0285714,14.2081524 27.5024762,13.6911238 C28.1369905,12.9144381 28.4731429,11.9366095 28.4502857,10.9339429 C28.4385524,8.59017143 26.529219,6.69988571 24.1854476,6.71161905 C21.8584381,6.7232 19.9747048,8.60678095 19.9631238,10.9339429 C19.9402667,11.9366095 20.276419,12.9144381 20.9110857,13.6911238" id="Fill-14"></path>
                            <path d="M22.1603048,17.6978286 C21.4710857,17.6978286 21.4710857,16.6208 22.1603048,16.6208 L26.2531048,16.6208 C26.9424762,16.6208 26.9424762,17.6978286 26.2531048,17.6978286 L22.1603048,17.6978286" id="Fill-15"></path>
                            <path d="M22.0670476,9.73546667 C22.4047238,9.73546667 22.6784,10.0775619 22.6784,10.4996571 C22.6784,10.9217524 22.4047238,11.2638476 22.0670476,11.2638476 C21.7293714,11.2638476 21.4556952,10.9217524 21.4556952,10.4996571 C21.4556952,10.0775619 21.7293714,9.73546667 22.0670476,9.73546667" id="Fill-16"></path>
                            <path d="M22.9935238,11.7583238 C22.4341333,11.9516952 22.0670476,12.2736762 22.0670476,12.6393905 C22.0670476,13.2303238 23.0250667,13.7092571 24.206781,13.7092571 C25.3884952,13.7092571 26.3465143,13.2303238 26.3465143,12.6393905 C26.3465143,12.2736762 25.9794286,11.9516952 25.4200381,11.7583238 C25.371581,10.9697524 24.849981,10.346819 24.206781,10.346819 C23.563581,10.346819 23.0418286,10.9697524 22.9935238,11.7583238" id="Fill-17"></path>
                            <path d="M26.3463619,9.73546667 C26.6840381,9.73546667 26.9578667,10.0775619 26.9578667,10.4996571 C26.9578667,10.9217524 26.6840381,11.2638476 26.3463619,11.2638476 C26.0088381,11.2638476 25.7351619,10.9217524 25.7351619,10.4996571 C25.7351619,10.0775619 26.0088381,9.73546667 26.3463619,9.73546667" id="Fill-18"></path>
                            <path d="M23.2897524,8.20708571 C23.6274286,8.20708571 23.9011048,8.54918095 23.9011048,8.97127619 C23.9011048,9.39337143 23.6274286,9.73546667 23.2897524,9.73546667 C22.9520762,9.73546667 22.6784,9.39337143 22.6784,8.97127619 C22.6784,8.54918095 22.9520762,8.20708571 23.2897524,8.20708571" id="Fill-19"></path>
                            <path d="M25.1238095,8.20708571 C25.4613333,8.20708571 25.7351619,8.54918095 25.7351619,8.97127619 C25.7351619,9.39337143 25.4613333,9.73546667 25.1238095,9.73546667 C24.7861333,9.73546667 24.5124571,9.39337143 24.5124571,8.97127619 C24.5124571,8.54918095 24.7861333,8.20708571 25.1238095,8.20708571" id="Fill-20"></path>
                            <path d="M22.1699048,16.0612571 C21.4799238,16.0612571 21.4799238,14.9830095 22.1699048,14.9830095 L26.2666667,14.9830095 C26.9566476,14.9830095 26.9566476,16.0612571 26.2666667,16.0612571 L22.1699048,16.0612571" id="Fill-21"></path>
                            <path d="M23.248,19.252419 C22.558019,19.252419 22.558019,18.1743238 23.248,18.1743238 L25.1885714,18.1743238 C25.8785524,18.1743238 25.8785524,19.252419 25.1885714,19.252419 L23.248,19.252419" id="Fill-22"></path>
                            <path d="M20.9193143,13.6463238 C21.3936762,14.1638095 20.5743238,14.8537905 20.0999619,14.293181 C19.317181,13.3305905 18.8906667,12.1270857 18.8924894,10.8864 C18.903619,7.94499048 21.2969143,5.56952381 24.2383238,5.58045739 C27.1640381,5.59161905 29.5331048,7.96068571 29.5440831,10.8864 C29.5460571,12.1270857 29.1195429,13.3304381 28.3367619,14.293181 C27.8624,14.8537905 27.0430476,14.1638095 27.5174095,13.6463238 C28.1525333,12.8687238 28.4889905,11.889981 28.4661333,10.8864 C28.4536381,8.54034286 26.5417143,6.6488381 24.1956571,6.66133333 C21.8674286,6.67382857 19.9830857,8.55801905 19.9707429,10.8864 C19.9477333,11.889981 20.2841905,12.8687238 20.9193143,13.6463238" id="Fill-23"></path>
                            <path d="M22.1699048,17.6568381 C21.4799238,17.6568381 21.4799238,16.5787429 22.1699048,16.5787429 L26.2666667,16.5787429 C26.9566476,16.5787429 26.9566476,17.6568381 26.2666667,17.6568381 L22.1699048,17.6568381" id="Fill-24"></path>
                            <path d="M22.0764952,9.68670476 C22.4144762,9.68670476 22.6884571,10.0291048 22.6884571,10.4516571 C22.6884571,10.8740571 22.4144762,11.2166095 22.0764952,11.2166095 C21.7385143,11.2166095 21.4645333,10.8740571 21.4645333,10.4516571 C21.4645333,10.0291048 21.7385143,9.68670476 22.0764952,9.68670476" id="Fill-25"></path>
                            <path d="M23.0038857,11.7116952 C22.4440381,11.9050667 22.0764952,12.2276571 22.0764952,12.5935238 C22.0764952,13.1849143 23.0354286,13.6643048 24.2183619,13.6643048 C25.4011429,13.6643048 26.3600762,13.1849143 26.3600762,12.5935238 C26.3600762,12.2276571 25.9926857,11.9050667 25.4326857,11.7116952 C25.384381,10.9223619 24.862019,10.2986667 24.2183619,10.2986667 C23.5745524,10.2986667 23.0521905,10.9222095 23.0038857,11.7116952" id="Fill-26"></path>
                            <path d="M26.3600762,9.68670476 C26.6982095,9.68670476 26.9720381,10.0291048 26.9720381,10.4516571 C26.9720381,10.8740571 26.6982095,11.2166095 26.3600762,11.2166095 C26.0222476,11.2166095 25.7482667,10.8740571 25.7482667,10.4516571 C25.7482667,10.0291048 26.0222476,9.68670476 26.3600762,9.68670476" id="Fill-27"></path>
                            <path d="M23.300419,8.1568 C23.6384,8.1568 23.912381,8.49935238 23.912381,8.92175238 C23.912381,9.34430476 23.6384,9.68670476 23.300419,9.68670476 C22.9624381,9.68670476 22.6884571,9.34430476 22.6884571,8.92175238 C22.6884571,8.49935238 22.9624381,8.1568 23.300419,8.1568" id="Fill-28"></path>
                            <path d="M25.1363048,8.1568 C25.4741333,8.1568 25.7481143,8.49935238 25.7481143,8.92175238 C25.7481143,9.34430476 25.4741333,9.68670476 25.1363048,9.68670476 C24.7983238,9.68670476 24.5241905,9.34430476 24.5241905,8.92175238 C24.5241905,8.49935238 24.7983238,8.1568 25.1363048,8.1568" id="Fill-29"></path>
                            <path d="M2.31984762,17.7397333 L0,7.6519619 L1.19725714,7.6519619 L2.39466667,12.9802667 C2.77394286,14.7465143 3.00342857,15.9338667 3.08312381,16.5424762 C3.13310476,15.9736381 3.36259048,14.7862857 3.77173333,12.9802667 L4.96899048,7.6519619 L6.1664,7.6519619 L3.83161905,17.7397333 L2.31984762,17.7397333" id="Fill-30"></path>
                            <path d="M11.0497524,11.4087619 C11.0497524,10.5305905 10.6006857,10.091581 9.70270476,10.091581 C8.80457143,10.091581 8.35550476,10.5305905 8.35580937,11.4087619 L8.35580937,12.8306286 L11.0499048,12.8306286 L11.0497524,11.4087619 Z M8.35565714,13.8034286 L8.35565714,15.5247238 C8.35565714,16.4027429 8.80457143,16.8419048 9.70270476,16.8419048 C10.6006857,16.8419048 11.0497524,16.4027429 11.0496,15.5247238 L11.0496,14.9558857 L12.2022095,14.9558857 L12.2022095,15.5097905 C12.2022095,16.2381714 11.9876571,16.8169143 11.5587048,17.2458667 C11.1296,17.6749714 10.5109333,17.8895238 9.70270476,17.8896762 C8.89447619,17.8896762 8.27580952,17.6749714 7.84670476,17.246019 C7.41775238,16.8169143 7.20304762,16.2381714 7.20304762,15.5097905 L7.20304762,11.4236952 C7.20304762,10.6951619 7.4176,10.116419 7.84670476,9.68746667 C8.27580952,9.2583619 8.89447619,9.04380952 9.70270476,9.04396182 C10.5109333,9.04396182 11.1296,9.25851429 11.5587048,9.68746667 C11.9876571,10.1165714 12.2022095,10.6953143 12.2022095,11.4236952 L12.2022095,13.7584762 L12.1721905,13.7584762 L12.1721905,13.8034286 L8.35565714,13.8034286 L8.35565714,13.8034286 Z" id="Fill-31"></path>
                            <path d="M13.4768762,9.1936 L14.4347429,9.1936 L14.734019,7.53219048 L15.557181,7.53219048 L15.557181,9.1936 L17.2935619,9.1936 L17.2935619,10.2113524 L15.557181,10.2113524 L15.557181,15.6743619 C15.557181,16.0434286 15.6345905,16.3129905 15.7892571,16.4825905 C15.9836952,16.6674286 16.2479238,16.7600762 16.5152,16.7370667 C16.8367238,16.741181 17.1545905,16.6694095 17.4432,16.5275429 L17.4432,17.6201143 C17.099581,17.7511619 16.7332571,17.8122667 16.3655619,17.7997714 C15.7071238,17.7997714 15.2131048,17.6176762 14.8838095,17.2534857 C14.5543619,16.8891429 14.3897905,16.3728762 14.3899429,15.704381 L14.3899429,10.2113524 L13.4768762,10.2113524 L13.4768762,9.1936" id="Fill-32"></path>
                            <polygon id="Fill-33" points="31.9744 17.7398857 33.1716571 17.7398857 33.1716571 7.6519619 31.9744 7.6519619"></polygon>
                            <path d="M35.0915048,17.7397333 L35.0915048,9.1936 L36.2139429,9.1936 L36.2139429,10.0766476 C36.3501714,9.81714286 36.5546667,9.59984762 36.8053333,9.44792381 C37.1580952,9.23260952 37.5673905,9.12838095 37.9801905,9.14864762 C38.6087619,9.14864762 39.1001905,9.33820952 39.4544762,9.71733333 C39.8086095,10.0966095 39.9856762,10.6153143 39.9858286,11.2739048 L39.9858286,17.7397333 L38.8182857,17.7397333 L38.8182857,11.4236952 C38.8182857,10.5854476 38.4141714,10.1664 37.6059429,10.1664 C37.2598857,10.1583238 36.9225143,10.2752 36.6555429,10.4955429 C36.3904,10.7166476 36.2436571,11.0488381 36.2588952,11.3936762 L36.2588952,17.7397333 L35.0915048,17.7397333" id="Fill-34"></path>
                            <path d="M45.0588952,13.3694476 C45.9968,13.7984 46.465981,14.4420571 46.4658286,15.3002667 L46.4658286,15.6443429 C46.4658286,16.362819 46.2587429,16.9167238 45.8445714,17.3059048 C45.4307048,17.6949333 44.8144762,17.8895238 43.9963429,17.8896762 C43.1879619,17.8896762 42.5817905,17.6924952 42.1776762,17.2984381 C41.7737143,16.9042286 41.5715048,16.3478857 41.5715048,15.6295619 L41.5715048,15.2252952 L42.7241143,15.2252952 L42.7241143,15.6443429 C42.7241143,16.0534857 42.8214857,16.3579429 43.0159238,16.5574095 C43.2105143,16.7568762 43.5373714,16.8566857 43.9963429,16.8566857 C44.4653714,16.8566857 44.804419,16.7594667 45.0139429,16.5648762 C45.2234667,16.3702857 45.3283048,16.0685714 45.3283048,15.6594286 L45.3283048,15.3898667 C45.3365333,15.1574857 45.2681143,14.9287619 45.1337143,14.7388952 C44.9528381,14.5270857 44.7210667,14.3649524 44.4603429,14.2674286 L42.9635048,13.5789714 C42.0854857,13.1698286 41.6464762,12.501181 41.6464762,11.5733333 L41.6464762,11.3039238 C41.6464762,9.79718095 42.4448,9.04380952 44.0412952,9.04380952 C45.6176762,9.04380952 46.4059429,9.80220952 46.4059429,11.3188571 L46.4059429,11.6931048 L45.2685714,11.6931048 L45.2685714,11.2889905 C45.2685714,10.8699429 45.1786667,10.5606095 44.9991619,10.3608381 C44.8196571,10.1613714 44.5002667,10.0615619 44.0412952,10.0615619 C43.5721143,10.0615619 43.2454095,10.1613714 43.0608762,10.3608381 C42.8764952,10.5604571 42.7841524,10.8697905 42.784,11.2889905 L42.784,11.483581 C42.784,12.052419 43.0633143,12.4565333 43.6222476,12.6959238 L45.0588952,13.3694476" id="Fill-35"></path>
                            <path d="M48.0862476,17.7398857 L49.2537905,17.7398857 L49.2537905,9.26841905 L48.0862476,9.26841905 L48.0862476,17.7398857 Z M49.3884952,7.53219048 C49.3884952,7.9911619 49.153981,8.2208 48.6849524,8.2208 C48.2160762,8.2208 47.9815619,7.9911619 47.9815619,7.53219048 C47.9815619,7.07321905 48.2160762,6.84358095 48.6849524,6.84358095 C49.153981,6.84358095 49.3884952,7.07321905 49.3884952,7.53219048 L49.3884952,7.53219048 Z" id="Fill-36"></path>
                            <path d="M54.8362667,11.2440381 C54.8362667,10.4359619 54.3722667,10.0316952 53.444419,10.0316952 C52.516419,10.0316952 52.0522667,10.4358095 52.0522667,11.2440381 L52.0522667,12.4864 C52.0522667,13.2944762 52.516419,13.6987429 53.444419,13.6987429 C54.3722667,13.6987429 54.8362667,13.2944762 54.8362667,12.4864 L54.8362667,11.2440381 Z M56.1831619,9.64266667 C55.9548952,9.63062857 55.7289143,9.69371429 55.5396571,9.82217143 C55.8543238,10.2273524 56.0137143,10.7317333 55.9887238,11.2440381 L55.9887238,12.4864 C55.9887238,13.1649524 55.7816381,13.6987429 55.367619,14.0877714 C54.9536,14.4769524 54.3273143,14.6767238 53.489219,14.6866286 C52.9504,14.6866286 52.6809905,14.9360762 52.6809905,15.434819 C52.6633143,15.6242286 52.7419429,15.809981 52.8905143,15.9288381 C53.0302476,16.0286476 53.2746667,16.0784762 53.6237714,16.0784762 L54.4920381,16.0784762 C55.8790095,16.0784762 56.5724952,16.6672762 56.5724952,17.8447238 L56.5724952,18.0542476 C56.5724952,19.3513143 55.6493714,19.9998476 53.803581,19.9998476 L53.2048762,19.9998476 C52.1770667,19.9998476 51.3837714,19.8403048 50.8249905,19.5209143 L50.8249905,18.3984762 C51.5460571,18.8035048 52.3632762,19.0051048 53.1899429,18.9820952 L53.7136762,18.9820952 C54.8611048,18.9820952 55.4349714,18.6677333 55.4349714,18.0391619 L55.4349714,17.9044571 C55.4509714,17.681219 55.3782857,17.4607238 55.2329143,17.290819 C55.0982095,17.1510857 54.8213333,17.0812952 54.4022857,17.0812952 L53.5041524,17.0812952 C52.2470095,17.0812952 51.6182857,16.6523429 51.6182857,15.7941333 L51.6182857,15.5545905 C51.5972571,15.0729143 51.9366095,14.6503619 52.4114286,14.5667048 C51.4037333,14.2873905 50.8998095,13.5939048 50.8998095,12.4864 L50.8998095,11.2440381 C50.8998095,10.555581 51.1119238,10.0167619 51.536,9.62758095 C51.9600762,9.2384 52.5961143,9.0439619 53.444419,9.0439619 C54.1327238,9.0439619 54.6816,9.1736381 55.0907429,9.43314286 C55.2803048,8.82438095 55.7344,8.52007619 56.4528762,8.52007619 L56.6922667,8.52007619 L56.6922667,9.64266667 L56.1831619,9.64266667 L56.1831619,9.64266667 Z" id="Fill-37"></path>
                            <path d="M58.112,17.7397333 L58.112,6.91855238 L59.2793905,6.91855238 L59.2793905,10.1066667 C59.4029714,9.84792381 59.5975619,9.63001905 59.8406095,9.47794286 C60.1872762,9.26125714 60.5924571,9.15672381 61.0006857,9.17866667 C61.6292571,9.17866667 62.1206857,9.36822857 62.474819,9.74735238 C62.8289524,10.1264762 63.0063238,10.6453333 63.0063238,11.3039238 L63.0063238,17.7397333 L61.838781,17.7397333 L61.838781,11.4686476 C61.838781,10.6305524 61.4346667,10.2113524 60.6264381,10.2113524 C60.2817524,10.2029714 59.9449905,10.3169524 59.6760381,10.5330286 C59.4102857,10.7503238 59.2630857,11.0808381 59.2793905,11.4236952 L59.2793905,17.7398857 L58.112,17.7397333" id="Fill-38"></path>
                            <path d="M64.3378286,9.1936 L65.2956952,9.1936 L65.5949714,7.53219048 L66.4181333,7.53219048 L66.4181333,9.1936 L68.1543619,9.1936 L68.1543619,10.2113524 L66.4181333,10.2113524 L66.4181333,15.6743619 C66.4181333,16.0434286 66.4953905,16.3129905 66.6500571,16.4825905 C66.8444952,16.6674286 67.1087238,16.7600762 67.376,16.7370667 C67.6975238,16.741181 68.0155429,16.6694095 68.304,16.5275429 L68.304,17.6201143 C67.960381,17.7511619 67.5940571,17.8122667 67.2265143,17.7997714 C66.5679238,17.7997714 66.0739048,17.6176762 65.7446095,17.2534857 C65.4153143,16.8891429 65.2505905,16.3728762 65.2507429,15.704381 L65.2507429,10.2113524 L64.3378286,10.2113524 L64.3378286,9.1936" id="Fill-39"></path>
                            <path d="M71.9794286,8.97904762 L72.2375619,8.97904762 L72.2375619,7.53219048 L71.8502095,7.53219048 L71.4793143,8.55771429 L71.1082667,7.53219048 L70.7210667,7.53219048 L70.7210667,8.97904762 L70.9793524,8.97904762 L70.9793524,7.8272 L70.9860571,7.8272 L71.3865143,8.97904762 L71.5719619,8.97904762 L71.9727238,7.8272 L71.9794286,7.8272 L71.9794286,8.97904762 Z M69.7543619,8.97904762 L70.0324571,8.97904762 L70.0324571,7.7639619 L70.4431238,7.7639619 L70.4431238,7.53219048 L69.3436952,7.53219048 L69.3436952,7.7639619 L69.7543619,7.7639619 L69.7543619,8.97904762 L69.7543619,8.97904762 Z" id="Fill-40"></path>
                        </g>
                        <path d="M82.12,9.048 C82.28,9.048 82.4066667,9 82.5,8.904 C82.5933333,8.808 82.64,8.68266667 82.64,8.528 L82.64,8.528 L82.64,3.832 C82.64,3.67733333 82.5933333,3.55333333 82.5,3.46 C82.4066667,3.36666667 82.28,3.32 82.12,3.32 C81.9653333,3.32 81.8413333,3.36666667 81.748,3.46 C81.6546667,3.55333333 81.608,3.67733333 81.608,3.832 L81.608,3.832 L81.608,8.528 C81.608,8.68266667 81.6546667,8.808 81.748,8.904 C81.8413333,9 81.9653333,9.048 82.12,9.048 Z M86.936,9.048 C87.0906667,9.048 87.212,9.00533333 87.3,8.92 C87.388,8.83466667 87.432,8.71733333 87.432,8.568 L87.432,8.568 L87.432,6.6 C87.432,6.06133333 87.3173333,5.65866667 87.088,5.392 C86.8586667,5.12533333 86.5093333,4.992 86.04,4.992 C85.7573333,4.992 85.504,5.05066667 85.28,5.168 C85.056,5.28533333 84.8773333,5.45333333 84.744,5.672 L84.744,5.672 L84.744,5.456 C84.744,5.32266667 84.7,5.21466667 84.612,5.132 C84.524,5.04933333 84.4106667,5.008 84.272,5.008 C84.1173333,5.008 83.9946667,5.05066667 83.904,5.136 C83.8133333,5.22133333 83.768,5.33333333 83.768,5.472 L83.768,5.472 L83.768,8.568 C83.768,8.71733333 83.812,8.83466667 83.9,8.92 C83.988,9.00533333 84.1093333,9.048 84.264,9.048 C84.4186667,9.048 84.5413333,9.00533333 84.632,8.92 C84.7226667,8.83466667 84.768,8.71733333 84.768,8.568 L84.768,8.568 L84.768,6.784 C84.768,6.48 84.8546667,6.23733333 85.028,6.056 C85.2013333,5.87466667 85.432,5.784 85.72,5.784 C85.9653333,5.784 86.1453333,5.85333333 86.26,5.992 C86.3746667,6.13066667 86.432,6.352 86.432,6.656 L86.432,6.656 L86.432,8.568 C86.432,8.71733333 86.4773333,8.83466667 86.568,8.92 C86.6586667,9.00533333 86.7813333,9.048 86.936,9.048 Z M91.12,10.48 C91.2693333,10.48 91.3893333,10.44 91.48,10.36 C91.5706667,10.28 91.616,10.1706667 91.616,10.032 L91.616,10.032 L91.616,8.4 C91.7333333,8.608 91.9013333,8.77066667 92.12,8.888 C92.3386667,9.00533333 92.5866667,9.064 92.864,9.064 C93.2053333,9.064 93.5066667,8.98133333 93.768,8.816 C94.0293333,8.65066667 94.2333333,8.416 94.38,8.112 C94.5266667,7.808 94.6,7.45333333 94.6,7.048 C94.6,6.64266667 94.5266667,6.284 94.38,5.972 C94.2333333,5.66 94.028,5.41866667 93.764,5.248 C93.5,5.07733333 93.2,4.992 92.864,4.992 C92.5813333,4.992 92.3293333,5.052 92.108,5.172 C91.8866667,5.292 91.7173333,5.46133333 91.6,5.68 L91.6,5.68 L91.6,5.48 C91.6,5.336 91.5546667,5.22133333 91.464,5.136 C91.3733333,5.05066667 91.2533333,5.008 91.104,5.008 C90.9546667,5.008 90.836,5.05066667 90.748,5.136 C90.66,5.22133333 90.616,5.336 90.616,5.48 L90.616,5.48 L90.616,10.016 C90.616,10.1546667 90.6626667,10.2666667 90.756,10.352 C90.8493333,10.4373333 90.9706667,10.48 91.12,10.48 Z M92.6,8.288 C92.28,8.288 92.0333333,8.17866667 91.86,7.96 C91.6866667,7.74133333 91.6,7.432 91.6,7.032 C91.6,6.62666667 91.6866667,6.31466667 91.86,6.096 C92.0333333,5.87733333 92.28,5.768 92.6,5.768 C92.9146667,5.768 93.16,5.88 93.336,6.104 C93.512,6.328 93.6,6.64266667 93.6,7.048 C93.6,7.44266667 93.512,7.748 93.336,7.964 C93.16,8.18 92.9146667,8.288 92.6,8.288 Z M96.672,9.064 C96.928,9.064 97.1533333,9.00533333 97.348,8.888 C97.5426667,8.77066667 97.6853333,8.608 97.776,8.4 L97.776,8.4 L97.776,8.576 C97.776,8.71466667 97.82,8.82666667 97.908,8.912 C97.996,8.99733333 98.1093333,9.04 98.248,9.04 C98.3973333,9.04 98.5146667,8.99866667 98.6,8.916 C98.6853333,8.83333333 98.728,8.72 98.728,8.576 L98.728,8.576 L98.728,6.624 C98.728,6.07466667 98.596,5.66533333 98.332,5.396 C98.068,5.12666667 97.664,4.992 97.12,4.992 C96.8693333,4.992 96.6146667,5.02133333 96.356,5.08 C96.0973333,5.13866667 95.8746667,5.21866667 95.688,5.32 C95.5813333,5.37866667 95.5053333,5.44133333 95.46,5.508 C95.4146667,5.57466667 95.392,5.65333333 95.392,5.744 C95.392,5.856 95.4226667,5.94666667 95.484,6.016 C95.5453333,6.08533333 95.624,6.12 95.72,6.12 C95.784,6.12 95.8853333,6.08533333 96.024,6.016 C96.2426667,5.93066667 96.432,5.86533333 96.592,5.82 C96.752,5.77466667 96.9093333,5.752 97.064,5.752 C97.3146667,5.752 97.496,5.812 97.608,5.932 C97.72,6.052 97.776,6.24266667 97.776,6.504 L97.776,6.504 L97.776,6.688 L97.576,6.688 C96.9946667,6.688 96.5386667,6.72533333 96.208,6.8 C95.8773333,6.87466667 95.6386667,6.99466667 95.492,7.16 C95.3453333,7.32533333 95.272,7.552 95.272,7.84 C95.272,8.06933333 95.3333333,8.27733333 95.456,8.464 C95.5786667,8.65066667 95.7466667,8.79733333 95.96,8.904 C96.1733333,9.01066667 96.4106667,9.064 96.672,9.064 Z M96.872,8.344 C96.696,8.344 96.548,8.28933333 96.428,8.18 C96.308,8.07066667 96.248,7.93066667 96.248,7.76 C96.248,7.62133333 96.2906667,7.512 96.376,7.432 C96.4613333,7.352 96.6026667,7.296 96.8,7.264 C96.9973333,7.232 97.2746667,7.216 97.632,7.216 L97.632,7.216 L97.776,7.216 L97.776,7.384 C97.776,7.66666667 97.692,7.89733333 97.524,8.076 C97.356,8.25466667 97.1386667,8.344 96.872,8.344 Z M100.24,9.048 C100.384,9.048 100.504,9.00666667 100.6,8.924 C100.696,8.84133333 100.744,8.72266667 100.744,8.568 L100.744,8.568 L100.744,6.888 C100.744,6.616 100.817333,6.38933333 100.964,6.208 C101.110667,6.02666667 101.341333,5.92 101.656,5.888 L101.656,5.888 L101.896,5.864 C102.077333,5.84266667 102.202667,5.79733333 102.272,5.728 C102.341333,5.65866667 102.376,5.552 102.376,5.408 C102.376,5.26933333 102.336,5.16533333 102.256,5.096 C102.176,5.02666667 102.066667,4.99733333 101.928,5.008 L101.928,5.008 L101.816,5.016 C101.570667,5.032 101.348,5.104 101.148,5.232 C100.948,5.36 100.797333,5.54133333 100.696,5.776 L100.696,5.776 L100.696,5.456 C100.696,5.312 100.653333,5.20133333 100.568,5.124 C100.482667,5.04666667 100.370667,5.008 100.232,5.008 C100.093333,5.008 99.9773333,5.048 99.884,5.128 C99.7906667,5.208 99.744,5.32266667 99.744,5.472 L99.744,5.472 L99.744,8.568 C99.744,8.72266667 99.7906667,8.84133333 99.884,8.924 C99.9773333,9.00666667 100.096,9.048 100.24,9.048 Z M104.64,9.04 C104.832,9.05066667 104.98,9.02266667 105.084,8.956 C105.188,8.88933333 105.24,8.792 105.24,8.664 C105.24,8.44 105.106667,8.32 104.84,8.304 L104.84,8.304 L104.624,8.288 C104.261333,8.26133333 104.08,8.05066667 104.08,7.656 L104.08,7.656 L104.08,5.84 L104.76,5.84 C104.904,5.84 105.014667,5.808 105.092,5.744 C105.169333,5.68 105.208,5.58666667 105.208,5.464 C105.208,5.34133333 105.169333,5.248 105.092,5.184 C105.014667,5.12 104.904,5.088 104.76,5.088 L104.76,5.088 L104.08,5.088 L104.08,4.352 C104.08,4.208 104.034667,4.09333333 103.944,4.008 C103.853333,3.92266667 103.733333,3.88 103.584,3.88 C103.429333,3.88 103.306667,3.92266667 103.216,4.008 C103.125333,4.09333333 103.08,4.208 103.08,4.352 L103.08,4.352 L103.08,5.088 L102.68,5.088 C102.536,5.088 102.425333,5.12 102.348,5.184 C102.270667,5.248 102.232,5.34133333 102.232,5.464 C102.232,5.58666667 102.270667,5.68 102.348,5.744 C102.425333,5.808 102.536,5.84 102.68,5.84 L102.68,5.84 L103.08,5.84 L103.08,7.584 C103.08,8.48 103.528,8.96 104.424,9.024 L104.424,9.024 L104.64,9.04 Z M108.928,9.048 C109.082667,9.048 109.204,9.00533333 109.292,8.92 C109.38,8.83466667 109.424,8.71733333 109.424,8.568 L109.424,8.568 L109.424,6.6 C109.424,6.06133333 109.309333,5.65866667 109.08,5.392 C108.850667,5.12533333 108.501333,4.992 108.032,4.992 C107.749333,4.992 107.496,5.05066667 107.272,5.168 C107.048,5.28533333 106.869333,5.45333333 106.736,5.672 L106.736,5.672 L106.736,5.456 C106.736,5.32266667 106.692,5.21466667 106.604,5.132 C106.516,5.04933333 106.402667,5.008 106.264,5.008 C106.109333,5.008 105.986667,5.05066667 105.896,5.136 C105.805333,5.22133333 105.76,5.33333333 105.76,5.472 L105.76,5.472 L105.76,8.568 C105.76,8.71733333 105.804,8.83466667 105.892,8.92 C105.98,9.00533333 106.101333,9.048 106.256,9.048 C106.410667,9.048 106.533333,9.00533333 106.624,8.92 C106.714667,8.83466667 106.76,8.71733333 106.76,8.568 L106.76,8.568 L106.76,6.784 C106.76,6.48 106.846667,6.23733333 107.02,6.056 C107.193333,5.87466667 107.424,5.784 107.712,5.784 C107.957333,5.784 108.137333,5.85333333 108.252,5.992 C108.366667,6.13066667 108.424,6.352 108.424,6.656 L108.424,6.656 L108.424,8.568 C108.424,8.71733333 108.469333,8.83466667 108.56,8.92 C108.650667,9.00533333 108.773333,9.048 108.928,9.048 Z M112.272,9.064 C112.48,9.064 112.698667,9.03333333 112.928,8.972 C113.157333,8.91066667 113.362667,8.82933333 113.544,8.728 C113.741333,8.616 113.84,8.47733333 113.84,8.312 C113.84,8.19466667 113.812,8.10133333 113.756,8.032 C113.7,7.96266667 113.626667,7.928 113.536,7.928 C113.461333,7.928 113.344,7.97066667 113.184,8.056 C113.018667,8.13066667 112.870667,8.18933333 112.74,8.232 C112.609333,8.27466667 112.458667,8.296 112.288,8.296 C111.952,8.296 111.696,8.20933333 111.52,8.036 C111.344,7.86266667 111.24,7.592 111.208,7.224 L111.208,7.224 L113.568,7.224 C113.770667,7.224 113.872,7.10933333 113.872,6.88 C113.872,6.496 113.8,6.16266667 113.656,5.88 C113.512,5.59733333 113.309333,5.37866667 113.048,5.224 C112.786667,5.06933333 112.48,4.992 112.128,4.992 C111.76,4.992 111.430667,5.07733333 111.14,5.248 C110.849333,5.41866667 110.624,5.65866667 110.464,5.968 C110.304,6.27733333 110.224,6.632 110.224,7.032 C110.224,7.66133333 110.408,8.15733333 110.776,8.52 C111.144,8.88266667 111.642667,9.064 112.272,9.064 Z M113.016,6.688 L111.208,6.688 C111.24,6.368 111.337333,6.12266667 111.5,5.952 C111.662667,5.78133333 111.88,5.696 112.152,5.696 C112.418667,5.696 112.626667,5.78 112.776,5.948 C112.925333,6.116 113.005333,6.36266667 113.016,6.688 L113.016,6.688 Z M115.184,9.048 C115.328,9.048 115.448,9.00666667 115.544,8.924 C115.64,8.84133333 115.688,8.72266667 115.688,8.568 L115.688,8.568 L115.688,6.888 C115.688,6.616 115.761333,6.38933333 115.908,6.208 C116.054667,6.02666667 116.285333,5.92 116.6,5.888 L116.6,5.888 L116.84,5.864 C117.021333,5.84266667 117.146667,5.79733333 117.216,5.728 C117.285333,5.65866667 117.32,5.552 117.32,5.408 C117.32,5.26933333 117.28,5.16533333 117.2,5.096 C117.12,5.02666667 117.010667,4.99733333 116.872,5.008 L116.872,5.008 L116.76,5.016 C116.514667,5.032 116.292,5.104 116.092,5.232 C115.892,5.36 115.741333,5.54133333 115.64,5.776 L115.64,5.776 L115.64,5.456 C115.64,5.312 115.597333,5.20133333 115.512,5.124 C115.426667,5.04666667 115.314667,5.008 115.176,5.008 C115.037333,5.008 114.921333,5.048 114.828,5.128 C114.734667,5.208 114.688,5.32266667 114.688,5.472 L114.688,5.472 L114.688,8.568 C114.688,8.72266667 114.734667,8.84133333 114.828,8.924 C114.921333,9.00666667 115.04,9.048 115.184,9.048 Z M119.168,9.064 C119.669333,9.064 120.070667,8.95466667 120.372,8.736 C120.673333,8.51733333 120.824,8.22666667 120.824,7.864 C120.824,7.64 120.78,7.456 120.692,7.312 C120.604,7.168 120.458667,7.048 120.256,6.952 C120.053333,6.856 119.773333,6.77066667 119.416,6.696 C119.08,6.62666667 118.853333,6.55733333 118.736,6.488 C118.618667,6.41866667 118.56,6.31733333 118.56,6.184 C118.56,6.04533333 118.617333,5.936 118.732,5.856 C118.846667,5.776 119.002667,5.736 119.2,5.736 C119.365333,5.736 119.504,5.756 119.616,5.796 C119.728,5.836 119.861333,5.896 120.016,5.976 C120.101333,6.024 120.172,6.06 120.228,6.084 C120.284,6.108 120.341333,6.12 120.4,6.12 C120.485333,6.12 120.557333,6.084 120.616,6.012 C120.674667,5.94 120.704,5.85066667 120.704,5.744 C120.704,5.568 120.618667,5.42666667 120.448,5.32 C120.282667,5.21333333 120.096,5.132 119.888,5.076 C119.68,5.02 119.464,4.992 119.24,4.992 C118.930667,4.992 118.654667,5.044 118.412,5.148 C118.169333,5.252 117.978667,5.39866667 117.84,5.588 C117.701333,5.77733333 117.632,5.98933333 117.632,6.224 C117.632,6.53333333 117.734667,6.776 117.94,6.952 C118.145333,7.128 118.485333,7.264 118.96,7.36 C119.226667,7.41866667 119.425333,7.47066667 119.556,7.516 C119.686667,7.56133333 119.777333,7.61066667 119.828,7.664 C119.878667,7.71733333 119.904,7.78933333 119.904,7.88 C119.904,8.01333333 119.841333,8.11733333 119.716,8.192 C119.590667,8.26666667 119.416,8.304 119.192,8.304 C118.973333,8.304 118.793333,8.28266667 118.652,8.24 C118.510667,8.19733333 118.354667,8.136 118.184,8.056 C118.024,7.97066667 117.898667,7.928 117.808,7.928 C117.722667,7.928 117.650667,7.96133333 117.592,8.028 C117.533333,8.09466667 117.504,8.18133333 117.504,8.288 C117.504,8.47466667 117.589333,8.61866667 117.76,8.72 C118.117333,8.94933333 118.586667,9.064 119.168,9.064 Z M124.8,9.048 C124.954667,9.048 125.076,9.00533333 125.164,8.92 C125.252,8.83466667 125.296,8.71733333 125.296,8.568 L125.296,8.568 L125.296,6.6 C125.296,5.528 124.837333,4.992 123.92,4.992 C123.637333,4.992 123.385333,5.04666667 123.164,5.156 C122.942667,5.26533333 122.765333,5.424 122.632,5.632 L122.632,5.632 L122.632,3.768 C122.632,3.62933333 122.586667,3.52 122.496,3.44 C122.405333,3.36 122.285333,3.32 122.136,3.32 C121.986667,3.32 121.865333,3.36266667 121.772,3.448 C121.678667,3.53333333 121.632,3.64533333 121.632,3.784 L121.632,3.784 L121.632,8.568 C121.632,8.71733333 121.676,8.83466667 121.764,8.92 C121.852,9.00533333 121.973333,9.048 122.128,9.048 C122.282667,9.048 122.405333,9.00533333 122.496,8.92 C122.586667,8.83466667 122.632,8.71733333 122.632,8.568 L122.632,8.568 L122.632,6.784 C122.632,6.48 122.718667,6.23733333 122.892,6.056 C123.065333,5.87466667 123.296,5.784 123.584,5.784 C123.829333,5.784 124.009333,5.84933333 124.124,5.98 C124.238667,6.11066667 124.296,6.31733333 124.296,6.6 L124.296,6.6 L124.296,8.568 C124.296,8.71733333 124.341333,8.83466667 124.432,8.92 C124.522667,9.00533333 124.645333,9.048 124.8,9.048 Z M126.808,4.296 C126.989333,4.296 127.133333,4.24666667 127.24,4.148 C127.346667,4.04933333 127.4,3.92 127.4,3.76 C127.4,3.6 127.345333,3.472 127.236,3.376 C127.126667,3.28 126.984,3.232 126.808,3.232 C126.626667,3.232 126.482667,3.28 126.376,3.376 C126.269333,3.472 126.216,3.6 126.216,3.76 C126.216,3.92 126.269333,4.04933333 126.376,4.148 C126.482667,4.24666667 126.626667,4.296 126.808,4.296 Z M126.808,9.048 C126.952,9.048 127.072,9.00666667 127.168,8.924 C127.264,8.84133333 127.312,8.72266667 127.312,8.568 L127.312,8.568 L127.312,5.48 C127.312,5.32533333 127.264,5.208 127.168,5.128 C127.072,5.048 126.952,5.008 126.808,5.008 C126.664,5.008 126.545333,5.048 126.452,5.128 C126.358667,5.208 126.312,5.32533333 126.312,5.48 L126.312,5.48 L126.312,8.568 C126.312,8.72266667 126.358667,8.84133333 126.452,8.924 C126.545333,9.00666667 126.664,9.048 126.808,9.048 Z M128.848,10.48 C128.997333,10.48 129.117333,10.44 129.208,10.36 C129.298667,10.28 129.344,10.1706667 129.344,10.032 L129.344,10.032 L129.344,8.4 C129.461333,8.608 129.629333,8.77066667 129.848,8.888 C130.066667,9.00533333 130.314667,9.064 130.592,9.064 C130.933333,9.064 131.234667,8.98133333 131.496,8.816 C131.757333,8.65066667 131.961333,8.416 132.108,8.112 C132.254667,7.808 132.328,7.45333333 132.328,7.048 C132.328,6.64266667 132.254667,6.284 132.108,5.972 C131.961333,5.66 131.756,5.41866667 131.492,5.248 C131.228,5.07733333 130.928,4.992 130.592,4.992 C130.309333,4.992 130.057333,5.052 129.836,5.172 C129.614667,5.292 129.445333,5.46133333 129.328,5.68 L129.328,5.68 L129.328,5.48 C129.328,5.336 129.282667,5.22133333 129.192,5.136 C129.101333,5.05066667 128.981333,5.008 128.832,5.008 C128.682667,5.008 128.564,5.05066667 128.476,5.136 C128.388,5.22133333 128.344,5.336 128.344,5.48 L128.344,5.48 L128.344,10.016 C128.344,10.1546667 128.390667,10.2666667 128.484,10.352 C128.577333,10.4373333 128.698667,10.48 128.848,10.48 Z M130.328,8.288 C130.008,8.288 129.761333,8.17866667 129.588,7.96 C129.414667,7.74133333 129.328,7.432 129.328,7.032 C129.328,6.62666667 129.414667,6.31466667 129.588,6.096 C129.761333,5.87733333 130.008,5.768 130.328,5.768 C130.642667,5.768 130.888,5.88 131.064,6.104 C131.24,6.328 131.328,6.64266667 131.328,7.048 C131.328,7.44266667 131.24,7.748 131.064,7.964 C130.888,8.18 130.642667,8.288 130.328,8.288 Z M139.64,9.04 C139.746667,9.04 139.844,9.01333333 139.932,8.96 C140.02,8.90666667 140.085333,8.82933333 140.128,8.728 L140.128,8.728 L141.448,5.632 C141.474667,5.57866667 141.488,5.51733333 141.488,5.448 C141.488,5.32533333 141.438667,5.22266667 141.34,5.14 C141.241333,5.05733333 141.130667,5.016 141.008,5.016 C140.922667,5.016 140.844,5.04 140.772,5.088 C140.7,5.136 140.645333,5.208 140.608,5.304 L140.608,5.304 L139.672,7.744 L138.696,5.32 C138.653333,5.21866667 138.592,5.14266667 138.512,5.092 C138.432,5.04133333 138.344,5.016 138.248,5.016 C138.152,5.016 138.064,5.04133333 137.984,5.092 C137.904,5.14266667 137.842667,5.21866667 137.8,5.32 L137.8,5.32 L136.832,7.736 L135.888,5.296 C135.850667,5.2 135.794667,5.128 135.72,5.08 C135.645333,5.032 135.562667,5.008 135.472,5.008 C135.344,5.008 135.226667,5.052 135.12,5.14 C135.013333,5.228 134.96,5.33333333 134.96,5.456 C134.96,5.504 134.973333,5.56266667 135,5.632 L135,5.632 L136.312,8.728 C136.354667,8.82933333 136.421333,8.90666667 136.512,8.96 C136.602667,9.01333333 136.698667,9.04 136.8,9.04 C136.906667,9.04 137.004,9.01333333 137.092,8.96 C137.18,8.90666667 137.245333,8.82933333 137.288,8.728 L137.288,8.728 L138.208,6.44 L139.16,8.728 C139.202667,8.82933333 139.268,8.90666667 139.356,8.96 C139.444,9.01333333 139.538667,9.04 139.64,9.04 Z M142.664,4.296 C142.845333,4.296 142.989333,4.24666667 143.096,4.148 C143.202667,4.04933333 143.256,3.92 143.256,3.76 C143.256,3.6 143.201333,3.472 143.092,3.376 C142.982667,3.28 142.84,3.232 142.664,3.232 C142.482667,3.232 142.338667,3.28 142.232,3.376 C142.125333,3.472 142.072,3.6 142.072,3.76 C142.072,3.92 142.125333,4.04933333 142.232,4.148 C142.338667,4.24666667 142.482667,4.296 142.664,4.296 Z M142.664,9.048 C142.808,9.048 142.928,9.00666667 143.024,8.924 C143.12,8.84133333 143.168,8.72266667 143.168,8.568 L143.168,8.568 L143.168,5.48 C143.168,5.32533333 143.12,5.208 143.024,5.128 C142.928,5.048 142.808,5.008 142.664,5.008 C142.52,5.008 142.401333,5.048 142.308,5.128 C142.214667,5.208 142.168,5.32533333 142.168,5.48 L142.168,5.48 L142.168,8.568 C142.168,8.72266667 142.214667,8.84133333 142.308,8.924 C142.401333,9.00666667 142.52,9.048 142.664,9.048 Z M146.032,9.04 C146.224,9.05066667 146.372,9.02266667 146.476,8.956 C146.58,8.88933333 146.632,8.792 146.632,8.664 C146.632,8.44 146.498667,8.32 146.232,8.304 L146.232,8.304 L146.016,8.288 C145.653333,8.26133333 145.472,8.05066667 145.472,7.656 L145.472,7.656 L145.472,5.84 L146.152,5.84 C146.296,5.84 146.406667,5.808 146.484,5.744 C146.561333,5.68 146.6,5.58666667 146.6,5.464 C146.6,5.34133333 146.561333,5.248 146.484,5.184 C146.406667,5.12 146.296,5.088 146.152,5.088 L146.152,5.088 L145.472,5.088 L145.472,4.352 C145.472,4.208 145.426667,4.09333333 145.336,4.008 C145.245333,3.92266667 145.125333,3.88 144.976,3.88 C144.821333,3.88 144.698667,3.92266667 144.608,4.008 C144.517333,4.09333333 144.472,4.208 144.472,4.352 L144.472,4.352 L144.472,5.088 L144.072,5.088 C143.928,5.088 143.817333,5.12 143.74,5.184 C143.662667,5.248 143.624,5.34133333 143.624,5.464 C143.624,5.58666667 143.662667,5.68 143.74,5.744 C143.817333,5.808 143.928,5.84 144.072,5.84 L144.072,5.84 L144.472,5.84 L144.472,7.584 C144.472,8.48 144.92,8.96 145.816,9.024 L145.816,9.024 L146.032,9.04 Z M150.32,9.048 C150.474667,9.048 150.596,9.00533333 150.684,8.92 C150.772,8.83466667 150.816,8.71733333 150.816,8.568 L150.816,8.568 L150.816,6.6 C150.816,5.528 150.357333,4.992 149.44,4.992 C149.157333,4.992 148.905333,5.04666667 148.684,5.156 C148.462667,5.26533333 148.285333,5.424 148.152,5.632 L148.152,5.632 L148.152,3.768 C148.152,3.62933333 148.106667,3.52 148.016,3.44 C147.925333,3.36 147.805333,3.32 147.656,3.32 C147.506667,3.32 147.385333,3.36266667 147.292,3.448 C147.198667,3.53333333 147.152,3.64533333 147.152,3.784 L147.152,3.784 L147.152,8.568 C147.152,8.71733333 147.196,8.83466667 147.284,8.92 C147.372,9.00533333 147.493333,9.048 147.648,9.048 C147.802667,9.048 147.925333,9.00533333 148.016,8.92 C148.106667,8.83466667 148.152,8.71733333 148.152,8.568 L148.152,8.568 L148.152,6.784 C148.152,6.48 148.238667,6.23733333 148.412,6.056 C148.585333,5.87466667 148.816,5.784 149.104,5.784 C149.349333,5.784 149.529333,5.84933333 149.644,5.98 C149.758667,6.11066667 149.816,6.31733333 149.816,6.6 L149.816,6.6 L149.816,8.568 C149.816,8.71733333 149.861333,8.83466667 149.952,8.92 C150.042667,9.00533333 150.165333,9.048 150.32,9.048 Z M83.456,18.04 C83.6106667,18.04 83.7346667,17.9933333 83.828,17.9 C83.9213333,17.8066667 83.968,17.6826667 83.968,17.528 L83.968,17.528 L83.968,13.208 L85.424,13.208 C85.744,13.208 85.904,13.0666667 85.904,12.784 C85.904,12.5013333 85.744,12.36 85.424,12.36 L85.424,12.36 L81.48,12.36 C81.16,12.36 81,12.5013333 81,12.784 C81,13.0666667 81.16,13.208 81.48,13.208 L81.48,13.208 L82.936,13.208 L82.936,17.528 C82.936,17.6826667 82.9826667,17.8066667 83.076,17.9 C83.1693333,17.9933333 83.296,18.04 83.456,18.04 Z M86.92,18.048 C87.064,18.048 87.184,18.0066667 87.28,17.924 C87.376,17.8413333 87.424,17.7226667 87.424,17.568 L87.424,17.568 L87.424,15.888 C87.424,15.616 87.4973333,15.3893333 87.644,15.208 C87.7906667,15.0266667 88.0213333,14.92 88.336,14.888 L88.336,14.888 L88.576,14.864 C88.7573333,14.8426667 88.8826667,14.7973333 88.952,14.728 C89.0213333,14.6586667 89.056,14.552 89.056,14.408 C89.056,14.2693333 89.016,14.1653333 88.936,14.096 C88.856,14.0266667 88.7466667,13.9973333 88.608,14.008 L88.608,14.008 L88.496,14.016 C88.2506667,14.032 88.028,14.104 87.828,14.232 C87.628,14.36 87.4773333,14.5413333 87.376,14.776 L87.376,14.776 L87.376,14.456 C87.376,14.312 87.3333333,14.2013333 87.248,14.124 C87.1626667,14.0466667 87.0506667,14.008 86.912,14.008 C86.7733333,14.008 86.6573333,14.048 86.564,14.128 C86.4706667,14.208 86.424,14.3226667 86.424,14.472 L86.424,14.472 L86.424,17.568 C86.424,17.7226667 86.4706667,17.8413333 86.564,17.924 C86.6573333,18.0066667 86.776,18.048 86.92,18.048 Z M90.736,18.064 C90.992,18.064 91.2173333,18.0053333 91.412,17.888 C91.6066667,17.7706667 91.7493333,17.608 91.84,17.4 L91.84,17.4 L91.84,17.576 C91.84,17.7146667 91.884,17.8266667 91.972,17.912 C92.06,17.9973333 92.1733333,18.04 92.312,18.04 C92.4613333,18.04 92.5786667,17.9986667 92.664,17.916 C92.7493333,17.8333333 92.792,17.72 92.792,17.576 L92.792,17.576 L92.792,15.624 C92.792,15.0746667 92.66,14.6653333 92.396,14.396 C92.132,14.1266667 91.728,13.992 91.184,13.992 C90.9333333,13.992 90.6786667,14.0213333 90.42,14.08 C90.1613333,14.1386667 89.9386667,14.2186667 89.752,14.32 C89.6453333,14.3786667 89.5693333,14.4413333 89.524,14.508 C89.4786667,14.5746667 89.456,14.6533333 89.456,14.744 C89.456,14.856 89.4866667,14.9466667 89.548,15.016 C89.6093333,15.0853333 89.688,15.12 89.784,15.12 C89.848,15.12 89.9493333,15.0853333 90.088,15.016 C90.3066667,14.9306667 90.496,14.8653333 90.656,14.82 C90.816,14.7746667 90.9733333,14.752 91.128,14.752 C91.3786667,14.752 91.56,14.812 91.672,14.932 C91.784,15.052 91.84,15.2426667 91.84,15.504 L91.84,15.504 L91.84,15.688 L91.64,15.688 C91.0586667,15.688 90.6026667,15.7253333 90.272,15.8 C89.9413333,15.8746667 89.7026667,15.9946667 89.556,16.16 C89.4093333,16.3253333 89.336,16.552 89.336,16.84 C89.336,17.0693333 89.3973333,17.2773333 89.52,17.464 C89.6426667,17.6506667 89.8106667,17.7973333 90.024,17.904 C90.2373333,18.0106667 90.4746667,18.064 90.736,18.064 Z M90.936,17.344 C90.76,17.344 90.612,17.2893333 90.492,17.18 C90.372,17.0706667 90.312,16.9306667 90.312,16.76 C90.312,16.6213333 90.3546667,16.512 90.44,16.432 C90.5253333,16.352 90.6666667,16.296 90.864,16.264 C91.0613333,16.232 91.3386667,16.216 91.696,16.216 L91.696,16.216 L91.84,16.216 L91.84,16.384 C91.84,16.6666667 91.756,16.8973333 91.588,17.076 C91.42,17.2546667 91.2026667,17.344 90.936,17.344 Z M95.544,18.064 C95.7733333,18.064 95.9973333,18.0333333 96.216,17.972 C96.4346667,17.9106667 96.6266667,17.8266667 96.792,17.72 C96.8826667,17.6666667 96.948,17.6066667 96.988,17.54 C97.028,17.4733333 97.048,17.3946667 97.048,17.304 C97.048,17.192 97.0186667,17.0986667 96.96,17.024 C96.9013333,16.9493333 96.8293333,16.912 96.744,16.912 C96.6853333,16.912 96.6266667,16.924 96.568,16.948 C96.5093333,16.972 96.44,17.008 96.36,17.056 C96.232,17.1253333 96.116,17.18 96.012,17.22 C95.908,17.26 95.7893333,17.28 95.656,17.28 C95.3253333,17.28 95.0706667,17.172 94.892,16.956 C94.7133333,16.74 94.624,16.432 94.624,16.032 C94.624,15.6266667 94.7133333,15.316 94.892,15.1 C95.0706667,14.884 95.3253333,14.776 95.656,14.776 C95.7946667,14.776 95.9173333,14.796 96.024,14.836 C96.1306667,14.876 96.2426667,14.9306667 96.36,15 C96.424,15.0373333 96.488,15.0693333 96.552,15.096 C96.616,15.1226667 96.6773333,15.136 96.736,15.136 C96.8266667,15.136 96.9,15.1 96.956,15.028 C97.012,14.956 97.04,14.8613333 97.04,14.744 C97.04,14.5733333 96.9546667,14.432 96.784,14.32 C96.624,14.2186667 96.4386667,14.1386667 96.228,14.08 C96.0173333,14.0213333 95.808,13.992 95.6,13.992 C95.2053333,13.992 94.856,14.0773333 94.552,14.248 C94.248,14.4186667 94.012,14.66 93.844,14.972 C93.676,15.284 93.592,15.6426667 93.592,16.048 C93.592,16.4533333 93.672,16.808 93.832,17.112 C93.992,17.416 94.22,17.6506667 94.516,17.816 C94.812,17.9813333 95.1546667,18.064 95.544,18.064 Z M99.544,18.04 C99.736,18.0506667 99.884,18.0226667 99.988,17.956 C100.092,17.8893333 100.144,17.792 100.144,17.664 C100.144,17.44 100.010667,17.32 99.744,17.304 L99.744,17.304 L99.528,17.288 C99.1653333,17.2613333 98.984,17.0506667 98.984,16.656 L98.984,16.656 L98.984,14.84 L99.664,14.84 C99.808,14.84 99.9186667,14.808 99.996,14.744 C100.073333,14.68 100.112,14.5866667 100.112,14.464 C100.112,14.3413333 100.073333,14.248 99.996,14.184 C99.9186667,14.12 99.808,14.088 99.664,14.088 L99.664,14.088 L98.984,14.088 L98.984,13.352 C98.984,13.208 98.9386667,13.0933333 98.848,13.008 C98.7573333,12.9226667 98.6373333,12.88 98.488,12.88 C98.3333333,12.88 98.2106667,12.9226667 98.12,13.008 C98.0293333,13.0933333 97.984,13.208 97.984,13.352 L97.984,13.352 L97.984,14.088 L97.584,14.088 C97.44,14.088 97.3293333,14.12 97.252,14.184 C97.1746667,14.248 97.136,14.3413333 97.136,14.464 C97.136,14.5866667 97.1746667,14.68 97.252,14.744 C97.3293333,14.808 97.44,14.84 97.584,14.84 L97.584,14.84 L97.984,14.84 L97.984,16.584 C97.984,17.48 98.432,17.96 99.328,18.024 L99.328,18.024 L99.544,18.04 Z M102.448,18.064 C102.848,18.064 103.198667,17.9813333 103.5,17.816 C103.801333,17.6506667 104.033333,17.4133333 104.196,17.104 C104.358667,16.7946667 104.44,16.4346667 104.44,16.024 C104.44,15.6133333 104.358667,15.2546667 104.196,14.948 C104.033333,14.6413333 103.801333,14.4053333 103.5,14.24 C103.198667,14.0746667 102.848,13.992 102.448,13.992 C102.048,13.992 101.697333,14.0746667 101.396,14.24 C101.094667,14.4053333 100.861333,14.6413333 100.696,14.948 C100.530667,15.2546667 100.448,15.6133333 100.448,16.024 C100.448,16.4346667 100.530667,16.7946667 100.696,17.104 C100.861333,17.4133333 101.094667,17.6506667 101.396,17.816 C101.697333,17.9813333 102.048,18.064 102.448,18.064 Z M102.44,17.288 C102.12,17.288 101.874667,17.1813333 101.704,16.968 C101.533333,16.7546667 101.448,16.44 101.448,16.024 C101.448,15.6133333 101.534667,15.3 101.708,15.084 C101.881333,14.868 102.128,14.76 102.448,14.76 C102.768,14.76 103.013333,14.868 103.184,15.084 C103.354667,15.3 103.44,15.6133333 103.44,16.024 C103.44,16.44 103.354667,16.7546667 103.184,16.968 C103.013333,17.1813333 102.765333,17.288 102.44,17.288 Z M105.76,18.048 C105.904,18.048 106.024,18.0066667 106.12,17.924 C106.216,17.8413333 106.264,17.7226667 106.264,17.568 L106.264,17.568 L106.264,15.888 C106.264,15.616 106.337333,15.3893333 106.484,15.208 C106.630667,15.0266667 106.861333,14.92 107.176,14.888 L107.176,14.888 L107.416,14.864 C107.597333,14.8426667 107.722667,14.7973333 107.792,14.728 C107.861333,14.6586667 107.896,14.552 107.896,14.408 C107.896,14.2693333 107.856,14.1653333 107.776,14.096 C107.696,14.0266667 107.586667,13.9973333 107.448,14.008 L107.448,14.008 L107.336,14.016 C107.090667,14.032 106.868,14.104 106.668,14.232 C106.468,14.36 106.317333,14.5413333 106.216,14.776 L106.216,14.776 L106.216,14.456 C106.216,14.312 106.173333,14.2013333 106.088,14.124 C106.002667,14.0466667 105.890667,14.008 105.752,14.008 C105.613333,14.008 105.497333,14.048 105.404,14.128 C105.310667,14.208 105.264,14.3226667 105.264,14.472 L105.264,14.472 L105.264,17.568 C105.264,17.7226667 105.310667,17.8413333 105.404,17.924 C105.497333,18.0066667 105.616,18.048 105.76,18.048 Z M112.536,18.072 C112.968,18.072 113.350667,18.0013333 113.684,17.86 C114.017333,17.7186667 114.276,17.5213333 114.46,17.268 C114.644,17.0146667 114.736,16.7226667 114.736,16.392 C114.736,16.088 114.657333,15.8346667 114.5,15.632 C114.342667,15.4293333 114.116,15.2626667 113.82,15.132 C113.524,15.0013333 113.138667,14.8826667 112.664,14.776 C112.216,14.6746667 111.898667,14.5653333 111.712,14.448 C111.525333,14.3306667 111.432,14.1626667 111.432,13.944 C111.432,13.6826667 111.537333,13.4786667 111.748,13.332 C111.958667,13.1853333 112.245333,13.112 112.608,13.112 C112.906667,13.112 113.158667,13.1506667 113.364,13.228 C113.569333,13.3053333 113.781333,13.424 114,13.584 C114.074667,13.6266667 114.134667,13.656 114.18,13.672 C114.225333,13.688 114.274667,13.696 114.328,13.696 C114.418667,13.696 114.497333,13.6546667 114.564,13.572 C114.630667,13.4893333 114.664,13.392 114.664,13.28 C114.664,13.1946667 114.649333,13.124 114.62,13.068 C114.590667,13.012 114.541333,12.9546667 114.472,12.896 C113.992,12.4906667 113.370667,12.288 112.608,12.288 C112.192,12.288 111.817333,12.3613333 111.484,12.508 C111.150667,12.6546667 110.890667,12.8586667 110.704,13.12 C110.517333,13.3813333 110.424,13.6773333 110.424,14.008 C110.424,14.328 110.498667,14.592 110.648,14.8 C110.797333,15.008 111.018667,15.1786667 111.312,15.312 C111.605333,15.4453333 111.986667,15.5626667 112.456,15.664 C112.909333,15.7653333 113.233333,15.8706667 113.428,15.98 C113.622667,16.0893333 113.72,16.2453333 113.72,16.448 C113.72,16.7093333 113.616,16.908 113.408,17.044 C113.2,17.18 112.901333,17.248 112.512,17.248 C112.208,17.248 111.930667,17.2106667 111.68,17.136 C111.429333,17.0613333 111.189333,16.9413333 110.96,16.776 C110.837333,16.7013333 110.728,16.664 110.632,16.664 C110.541333,16.664 110.462667,16.7053333 110.396,16.788 C110.329333,16.8706667 110.296,16.968 110.296,17.08 C110.296,17.2453333 110.357333,17.3733333 110.48,17.464 C110.709333,17.6506667 111.006667,17.7986667 111.372,17.908 C111.737333,18.0173333 112.125333,18.072 112.536,18.072 Z M117.016,18.064 C117.277333,18.064 117.512,18.0066667 117.72,17.892 C117.928,17.7773333 118.093333,17.6133333 118.216,17.4 L118.216,17.4 L118.216,17.6 C118.216,17.7386667 118.258667,17.848 118.344,17.928 C118.429333,18.008 118.544,18.048 118.688,18.048 C118.837333,18.048 118.958667,18.0053333 119.052,17.92 C119.145333,17.8346667 119.192,17.7226667 119.192,17.584 L119.192,17.584 L119.192,14.48 C119.192,14.336 119.146667,14.2213333 119.056,14.136 C118.965333,14.0506667 118.842667,14.008 118.688,14.008 C118.538667,14.008 118.418667,14.0506667 118.328,14.136 C118.237333,14.2213333 118.192,14.336 118.192,14.48 L118.192,14.48 L118.192,16.264 C118.192,16.568 118.108,16.812 117.94,16.996 C117.772,17.18 117.549333,17.272 117.272,17.272 C117.032,17.272 116.856,17.2053333 116.744,17.072 C116.632,16.9386667 116.576,16.7333333 116.576,16.456 L116.576,16.456 L116.576,14.48 C116.576,14.336 116.530667,14.2213333 116.44,14.136 C116.349333,14.0506667 116.226667,14.008 116.072,14.008 C115.922667,14.008 115.802667,14.0506667 115.712,14.136 C115.621333,14.2213333 115.576,14.336 115.576,14.48 L115.576,14.48 L115.576,16.448 C115.576,17.5253333 116.056,18.064 117.016,18.064 Z M120.736,19.48 C120.885333,19.48 121.005333,19.44 121.096,19.36 C121.186667,19.28 121.232,19.1706667 121.232,19.032 L121.232,19.032 L121.232,17.4 C121.349333,17.608 121.517333,17.7706667 121.736,17.888 C121.954667,18.0053333 122.202667,18.064 122.48,18.064 C122.821333,18.064 123.122667,17.9813333 123.384,17.816 C123.645333,17.6506667 123.849333,17.416 123.996,17.112 C124.142667,16.808 124.216,16.4533333 124.216,16.048 C124.216,15.6426667 124.142667,15.284 123.996,14.972 C123.849333,14.66 123.644,14.4186667 123.38,14.248 C123.116,14.0773333 122.816,13.992 122.48,13.992 C122.197333,13.992 121.945333,14.052 121.724,14.172 C121.502667,14.292 121.333333,14.4613333 121.216,14.68 L121.216,14.68 L121.216,14.48 C121.216,14.336 121.170667,14.2213333 121.08,14.136 C120.989333,14.0506667 120.869333,14.008 120.72,14.008 C120.570667,14.008 120.452,14.0506667 120.364,14.136 C120.276,14.2213333 120.232,14.336 120.232,14.48 L120.232,14.48 L120.232,19.016 C120.232,19.1546667 120.278667,19.2666667 120.372,19.352 C120.465333,19.4373333 120.586667,19.48 120.736,19.48 Z M122.216,17.288 C121.896,17.288 121.649333,17.1786667 121.476,16.96 C121.302667,16.7413333 121.216,16.432 121.216,16.032 C121.216,15.6266667 121.302667,15.3146667 121.476,15.096 C121.649333,14.8773333 121.896,14.768 122.216,14.768 C122.530667,14.768 122.776,14.88 122.952,15.104 C123.128,15.328 123.216,15.6426667 123.216,16.048 C123.216,16.4426667 123.128,16.748 122.952,16.964 C122.776,17.18 122.530667,17.288 122.216,17.288 Z M125.544,19.48 C125.693333,19.48 125.813333,19.44 125.904,19.36 C125.994667,19.28 126.04,19.1706667 126.04,19.032 L126.04,19.032 L126.04,17.4 C126.157333,17.608 126.325333,17.7706667 126.544,17.888 C126.762667,18.0053333 127.010667,18.064 127.288,18.064 C127.629333,18.064 127.930667,17.9813333 128.192,17.816 C128.453333,17.6506667 128.657333,17.416 128.804,17.112 C128.950667,16.808 129.024,16.4533333 129.024,16.048 C129.024,15.6426667 128.950667,15.284 128.804,14.972 C128.657333,14.66 128.452,14.4186667 128.188,14.248 C127.924,14.0773333 127.624,13.992 127.288,13.992 C127.005333,13.992 126.753333,14.052 126.532,14.172 C126.310667,14.292 126.141333,14.4613333 126.024,14.68 L126.024,14.68 L126.024,14.48 C126.024,14.336 125.978667,14.2213333 125.888,14.136 C125.797333,14.0506667 125.677333,14.008 125.528,14.008 C125.378667,14.008 125.26,14.0506667 125.172,14.136 C125.084,14.2213333 125.04,14.336 125.04,14.48 L125.04,14.48 L125.04,19.016 C125.04,19.1546667 125.086667,19.2666667 125.18,19.352 C125.273333,19.4373333 125.394667,19.48 125.544,19.48 Z M127.024,17.288 C126.704,17.288 126.457333,17.1786667 126.284,16.96 C126.110667,16.7413333 126.024,16.432 126.024,16.032 C126.024,15.6266667 126.110667,15.3146667 126.284,15.096 C126.457333,14.8773333 126.704,14.768 127.024,14.768 C127.338667,14.768 127.584,14.88 127.76,15.104 C127.936,15.328 128.024,15.6426667 128.024,16.048 C128.024,16.4426667 127.936,16.748 127.76,16.964 C127.584,17.18 127.338667,17.288 127.024,17.288 Z M130.344,18.048 C130.488,18.048 130.608,18.0066667 130.704,17.924 C130.8,17.8413333 130.848,17.7226667 130.848,17.568 L130.848,17.568 L130.848,12.792 C130.848,12.6373333 130.8,12.52 130.704,12.44 C130.608,12.36 130.488,12.32 130.344,12.32 C130.2,12.32 130.081333,12.36 129.988,12.44 C129.894667,12.52 129.848,12.6373333 129.848,12.792 L129.848,12.792 L129.848,17.568 C129.848,17.7226667 129.894667,17.8413333 129.988,17.924 C130.081333,18.0066667 130.2,18.048 130.344,18.048 Z M132.84,19.48 C133.032,19.48 133.173333,19.3893333 133.264,19.208 L133.264,19.208 L135.448,14.632 C135.48,14.568 135.496,14.5066667 135.496,14.448 C135.496,14.3253333 135.446667,14.2226667 135.348,14.14 C135.249333,14.0573333 135.138667,14.016 135.016,14.016 C134.930667,14.016 134.852,14.0386667 134.78,14.084 C134.708,14.1293333 134.650667,14.2 134.608,14.296 L134.608,14.296 L133.496,16.76 L132.376,14.288 C132.333333,14.192 132.274667,14.1213333 132.2,14.076 C132.125333,14.0306667 132.042667,14.008 131.952,14.008 C131.818667,14.008 131.7,14.0506667 131.596,14.136 C131.492,14.2213333 131.44,14.3253333 131.44,14.448 C131.44,14.5173333 131.453333,14.5786667 131.48,14.632 L131.48,14.632 L132.968,17.728 L132.424,18.872 C132.392,18.9466667 132.376,19.0133333 132.376,19.072 C132.376,19.1893333 132.422667,19.2866667 132.516,19.364 C132.609333,19.4413333 132.717333,19.48 132.84,19.48 Z M140.864,18.072 C141.216,18.072 141.546667,18.02 141.856,17.916 C142.165333,17.812 142.44,17.6613333 142.68,17.464 C142.749333,17.4106667 142.797333,17.3533333 142.824,17.292 C142.850667,17.2306667 142.864,17.16 142.864,17.08 C142.864,16.9626667 142.832,16.864 142.768,16.784 C142.704,16.704 142.626667,16.664 142.536,16.664 C142.477333,16.664 142.421333,16.6746667 142.368,16.696 C142.314667,16.7173333 142.261333,16.744 142.208,16.776 C141.962667,16.9413333 141.742667,17.0586667 141.548,17.128 C141.353333,17.1973333 141.141333,17.232 140.912,17.232 C140.357333,17.232 139.937333,17.0586667 139.652,16.712 C139.366667,16.3653333 139.224,15.8533333 139.224,15.176 C139.224,14.504 139.366667,13.9946667 139.652,13.648 C139.937333,13.3013333 140.357333,13.128 140.912,13.128 C141.152,13.128 141.370667,13.1613333 141.568,13.228 C141.765333,13.2946667 141.978667,13.4133333 142.208,13.584 C142.32,13.6586667 142.429333,13.696 142.536,13.696 C142.626667,13.696 142.704,13.656 142.768,13.576 C142.832,13.496 142.864,13.3973333 142.864,13.28 C142.864,13.1946667 142.850667,13.1226667 142.824,13.064 C142.797333,13.0053333 142.749333,12.9493333 142.68,12.896 C142.44,12.6986667 142.165333,12.548 141.856,12.444 C141.546667,12.34 141.216,12.288 140.864,12.288 C140.32,12.288 139.844,12.4053333 139.436,12.64 C139.028,12.8746667 138.714667,13.2093333 138.496,13.644 C138.277333,14.0786667 138.168,14.5893333 138.168,15.176 C138.168,15.7626667 138.277333,16.2746667 138.496,16.712 C138.714667,17.1493333 139.028,17.4853333 139.436,17.72 C139.844,17.9546667 140.32,18.072 140.864,18.072 Z M145.464,18.064 C145.864,18.064 146.214667,17.9813333 146.516,17.816 C146.817333,17.6506667 147.049333,17.4133333 147.212,17.104 C147.374667,16.7946667 147.456,16.4346667 147.456,16.024 C147.456,15.6133333 147.374667,15.2546667 147.212,14.948 C147.049333,14.6413333 146.817333,14.4053333 146.516,14.24 C146.214667,14.0746667 145.864,13.992 145.464,13.992 C145.064,13.992 144.713333,14.0746667 144.412,14.24 C144.110667,14.4053333 143.877333,14.6413333 143.712,14.948 C143.546667,15.2546667 143.464,15.6133333 143.464,16.024 C143.464,16.4346667 143.546667,16.7946667 143.712,17.104 C143.877333,17.4133333 144.110667,17.6506667 144.412,17.816 C144.713333,17.9813333 145.064,18.064 145.464,18.064 Z M145.456,17.288 C145.136,17.288 144.890667,17.1813333 144.72,16.968 C144.549333,16.7546667 144.464,16.44 144.464,16.024 C144.464,15.6133333 144.550667,15.3 144.724,15.084 C144.897333,14.868 145.144,14.76 145.464,14.76 C145.784,14.76 146.029333,14.868 146.2,15.084 C146.370667,15.3 146.456,15.6133333 146.456,16.024 C146.456,16.44 146.370667,16.7546667 146.2,16.968 C146.029333,17.1813333 145.781333,17.288 145.456,17.288 Z M148.752,18.048 C148.922667,18.048 149.064,17.9906667 149.176,17.876 C149.288,17.7613333 149.344,17.6186667 149.344,17.448 C149.344,17.2773333 149.288,17.1346667 149.176,17.02 C149.064,16.9053333 148.922667,16.848 148.752,16.848 C148.581333,16.848 148.44,16.9053333 148.328,17.02 C148.216,17.1346667 148.16,17.2773333 148.16,17.448 C148.16,17.6186667 148.216,17.7613333 148.328,17.876 C148.44,17.9906667 148.581333,18.048 148.752,18.048 Z" id="InpartnershipwithTractorSupplyCo." fill="#FFFFFF" fill-rule="nonzero" opacity="0.600000024"></path>
                    </g>
                </g>
            </g>
        </g>
    </g>
</svg>
