<?xml version="1.0" encoding="UTF-8"?>
<svg width="16px" height="16px" viewBox="0 0 16 16" version="1.1" xmlns="http://www.w3.org/2000/svg" xmlns:xlink="http://www.w3.org/1999/xlink">
    <title>78CCDC4E-3BF1-4424-AB7D-A3CCB90CFC2E</title>
    <g id="-01-Bubble-chat" stroke="none" stroke-width="1" fill="none" fill-rule="evenodd">
        <g id="00---010---Report---Generic-Report---No-Possible-Causes" transform="translate(-44.000000, -228.000000)" fill="#123C70" fill-rule="nonzero">
            <g id="Recommendation" transform="translate(16.000000, 164.000000)">
                <g id="Alert" transform="translate(0.000000, 40.000000)">
                    <g id="Tag" transform="translate(20.000000, 20.000000)">
                        <g id="Question-Circle" transform="translate(8.000000, 4.000000)">
                            <path d="M7.43199956,10.6319994 L7.43199946,10.6319995 C7.3975953,10.6700154 7.36553602,10.7100895 7.33599946,10.7519995 L7.33599943,10.7519995 C7.30572231,10.7965957 7.28151008,10.8450203 7.26399944,10.8959995 L7.26399945,10.8959995 C7.24093369,10.941348 7.22475593,10.9898811 7.21599945,11.0399995 L7.21599944,11.0399996 C7.21207257,11.0932607 7.21207258,11.1467388 7.21599947,11.1999996 L7.21599947,11.1999996 C7.21329537,11.3049412 7.23521435,11.4090564 7.27999946,11.5039996 L7.27999948,11.5039996 C7.35273851,11.7049836 7.51101546,11.8632604 7.71199945,11.9359996 L7.71199942,11.9359996 C7.9056314,12.0215812 8.12636739,12.0215812 8.31999938,11.9359996 L8.31999936,11.9359996 C8.52098335,11.8632606 8.67926014,11.7049836 8.75199934,11.5039996 L8.75199934,11.5039996 C8.78752422,11.4067276 8.80382582,11.3034844 8.79999942,11.1999996 L8.79999944,11.1999964 C8.80122798,10.987354 8.71774664,10.7829716 8.56799705,10.6319972 L8.56799709,10.6319972 C8.2568603,10.3183004 7.75033313,10.316226 7.43663715,10.6273631 C7.43508537,10.6289022 7.4335399,10.6304477 7.43200078,10.6319995 L7.43199956,10.6319994 Z M7.99999965,0 L7.99999965,0 C3.58171944,0 -3.49691179e-07,3.58171979 -3.49691179e-07,8 C-3.49691179e-07,12.4182793 3.58171944,16 7.99999965,16 C12.4182789,16 15.9999997,12.4182793 15.9999997,8 L15.9999997,8 C15.9999997,3.58172014 12.4182789,0 7.99999965,0 L7.99999965,0 Z M7.99999952,14.3999991 L7.99999924,14.3999991 C4.46537545,14.3999991 1.59999962,11.5346233 1.59999962,7.99999952 C1.59999962,4.46537573 4.46537545,1.5999999 7.99999924,1.5999999 C11.534623,1.5999999 14.3999989,4.46537573 14.3999989,7.99999952 L14.3999989,7.99999924 C14.3999989,11.534623 11.534623,14.3999991 7.99999924,14.3999991 L7.99999952,14.3999991 Z M7.99999952,3.99999919 L7.99999962,3.99999919 C7.14201567,3.99944963 6.34899171,4.45696053 5.91999974,5.19999969 L5.91999978,5.19999963 C5.68297019,5.57286521 5.79308619,6.06727958 6.16595176,6.30431156 C6.53881734,6.54134115 7.03323171,6.43122516 7.2702637,6.05835958 C7.28232354,6.03938862 7.29357834,6.01991774 7.30399826,5.99999919 L7.30399818,5.99999919 C7.44747098,5.75149172 7.71305016,5.59885973 7.99999814,5.59999893 L7.99999811,5.59999893 C8.44182608,5.59999891 8.79999806,5.95817091 8.79999806,6.39999888 C8.79999808,6.84182686 8.44182608,7.19999884 7.99999811,7.19999884 L7.99999807,7.19999884 C7.5581701,7.19999885 7.19999812,7.55817081 7.19999812,7.99999919 C7.19999812,7.99999919 7.19999812,7.99999919 7.19999812,7.99999919 L7.19999812,8.79999874 L7.19999812,8.79999886 C7.19999819,9.24182683 7.5581701,9.59999881 7.99999807,9.59999881 C8.44182605,9.59999881 8.79999802,9.24182683 8.79999802,8.79999886 L8.79999802,8.65599887 L8.79999791,8.65599891 C10.0459898,8.20388774 10.6895578,6.82730302 10.2374538,5.5813111 C9.89533784,4.63845515 9.00297389,4.00778319 7.99999795,3.99999919 L7.99999952,3.99999919 Z" id="Shape"></path>
                        </g>
                    </g>
                </g>
            </g>
        </g>
    </g>
</svg>