<svg width="28px" height="28px" viewBox="0 0 800 800" fill="none" xmlns="http://www.w3.org/2000/svg">
<circle cx="400" cy="400" r="400" fill="#ECF7F5"/>
<g clip-path="url(#clip0)">
<path d="M422.533 165.519C382.985 165.519 356.503 195.532 356.503 230.49C356.503 317 514.693 341.011 514.693 466.716C514.693 522.859 488.563 557.11 450.428 557.11C421.121 557.11 403.112 536.63 403.112 504.851C403.112 471.659 431.008 434.23 431.008 391.152C431.008 354.782 405.937 326.181 372.392 326.181C328.961 326.181 300.712 361.491 300.712 419.047C300.712 432.818 302.125 444.823 302.125 454.71C302.125 510.148 285.882 544.752 261.165 544.752C239.979 544.752 227.973 527.096 227.973 494.964C227.973 429.64 265.755 352.31 335.67 283.102L329.667 273.215C276.348 289.458 260.812 273.215 210.671 273.215C167.945 273.215 137.932 302.876 137.932 342.07C137.932 368.906 155.94 390.092 179.951 390.092C197.606 390.092 210.318 378.087 210.318 360.785C210.318 344.542 197.959 331.477 182.07 331.477C172.889 331.477 165.121 335.714 159.471 342.07C156.646 324.415 169.711 310.644 189.132 310.644C222.323 310.644 235.741 320.531 268.227 321.943C200.078 403.51 177.832 458.241 177.832 511.207C177.832 559.229 206.434 591.714 251.278 591.714C300.712 591.714 330.726 546.517 330.726 467.422C330.726 454.357 328.961 438.821 328.961 420.812C328.961 386.914 338.848 367.494 357.562 367.494C372.392 367.494 380.867 379.499 380.867 397.507C380.867 434.583 349.794 462.125 349.794 512.972C349.794 566.644 388.988 604.073 444.779 604.073C506.925 604.073 554.594 552.167 554.594 478.368C554.594 336.774 396.403 298.992 396.403 237.199C396.403 223.428 402.406 216.012 416.883 216.012C472.321 216.012 495.272 365.728 581.076 365.728C610.384 365.728 632.983 342.07 632.983 311.703C632.983 289.105 617.799 271.45 598.379 271.45C581.43 271.45 567.305 285.221 567.305 302.876C567.305 320.884 582.136 334.655 601.203 333.949C598.025 341.011 591.316 344.895 583.195 344.895C522.814 344.895 522.461 165.519 422.533 165.519Z" fill="#521900"/>
</g>
<defs>
<clipPath id="clip0">
<rect width="497.876" height="441.379" fill="white" transform="translate(137.932 165.519)"/>
</clipPath>
</defs>
</svg>
