<?xml version="1.0" encoding="UTF-8"?>
<svg width="121px" height="25px" viewBox="0 0 97 20" version="1.1" xmlns="http://www.w3.org/2000/svg" xmlns:xlink="http://www.w3.org/1999/xlink">
    <title>vetinsight-white</title>
    <defs>
        <filter id="filter-1">
            <feColorMatrix in="SourceGraphic" type="matrix" values="0 0 0 0 1.000000 0 0 0 0 1.000000 0 0 0 0 1.000000 0 0 0 1.000000 0"></feColorMatrix>
        </filter>
        <polygon id="path-2" points="0 0.312442761 33.7649974 0.312442761 33.7649974 13.4678723 0 13.4678723"></polygon>
        <polygon id="path-4" points="0.114666661 0.282322287 11.4745153 0.282322287 11.4745153 17.426807 0.114666661 17.426807"></polygon>
    </defs>
    <g id="TSC-Mobile" stroke="none" stroke-width="1" fill="none" fill-rule="evenodd">
        <g id="00---01---TSC---Home" transform="translate(-28.000000, -66.000000)">
            <g id="Card" transform="translate(16.000000, 47.000000)">
                <g id="TopBar" transform="translate(12.000000, 16.000000)">
                    <g id="vetinsight-white" transform="translate(0.000000, 3.000000)" filter="url(#filter-1)">
                        <g>
                            <path d="M29.0980302,13.6671056 C28.1980334,13.6671056 28.1980334,12.2610057 29.0980302,12.2610057 L34.4412918,12.2610057 C35.3412204,12.2610057 35.3412204,13.6671056 34.4412918,13.6671056 L29.0980302,13.6671056 Z" id="Path" fill="#000000"></path>
                            <path d="M30.504096,17.8292324 C29.6041334,17.8292324 29.6041334,16.4231666 30.504096,16.4231666 L33.034953,16.4231666 C33.9349498,16.4231666 33.9349498,17.8292324 33.034953,17.8292324 L30.504096,17.8292324 Z" id="Path" fill="#000000"></path>
                            <path d="M27.4668628,10.5175264 C28.0853803,11.192524 27.0166938,12.0925208 26.3980058,11.3612137 C25.3855947,10.1238376 24.8232162,8.54908209 24.8232162,6.91781233 C24.8232162,3.09345396 27.9166565,0 31.7411991,0 C35.6220854,0 38.7153551,3.09345396 38.7153551,6.91781233 C38.7153551,8.54908209 38.1529424,10.1238376 37.1407361,11.3612137 C36.5220139,12.0925208 35.4534981,11.192524 36.0718791,10.5175264 C36.9158393,9.5051495 37.3093234,8.26777337 37.3093234,6.91781233 C37.3093234,3.88085218 34.8347759,1.40607945 31.7411991,1.40607945 C28.7040683,1.40607945 26.229282,3.88085218 26.229282,6.91781233 C26.229282,8.26777337 26.6229708,9.5051495 27.4668628,10.5175264 Z" id="Path" fill="#000000"></path>
                            <path d="M29.0980302,15.7481349 C28.1980334,15.7481349 28.1980334,14.342035 29.0980302,14.342035 L34.4412918,14.342035 C35.3412204,14.342035 35.3412204,15.7481349 34.4412918,15.7481349 L29.0980302,15.7481349 Z" id="Path" fill="#000000"></path>
                            <path d="M28.976231,5.35336321 C29.4170492,5.35336321 29.7743587,5.79998303 29.7743587,6.35103141 C29.7743587,6.9020798 29.4170492,7.34869961 28.976231,7.34869961 C28.5353787,7.34869961 28.1781033,6.9020798 28.1781033,6.35103141 C28.1781033,5.79998303 28.5353787,5.35336321 28.976231,5.35336321 Z" id="Path" fill="#000000"></path>
                            <path d="M30.1857936,7.99424561 C29.4555104,8.24651226 28.9762651,8.66705907 28.9762651,9.14429079 C28.9762651,9.91576535 30.2269849,10.5410399 31.7697293,10.5410399 C33.3124736,10.5410399 34.5631252,9.91576535 34.5631252,9.14429079 C34.5631252,8.66705907 34.0837434,8.24651226 33.3536649,7.99424561 C33.2903935,6.96477106 32.609253,6.15132031 31.7697293,6.15132031 C30.9300349,6.15132031 30.2488603,6.96477106 30.1857936,7.99424561 Z" id="Path" fill="#000000"></path>
                            <path d="M34.5631252,5.35336321 C35.0040458,5.35336321 35.3613553,5.79998303 35.3613553,6.35103141 C35.3613553,6.9020798 35.0040458,7.34869961 34.5631252,7.34869961 C34.1223411,7.34869961 33.7650657,6.9020798 33.7650657,6.35103141 C33.7650657,5.79998303 34.1223411,5.35336321 34.5631252,5.35336321 Z" id="Path" fill="#000000"></path>
                            <path d="M30.5724182,3.35804046 C31.0132706,3.35804046 31.370546,3.80464662 31.370546,4.35569501 C31.370546,4.90674339 31.0132706,5.35336321 30.5724182,5.35336321 C30.1316,5.35336321 29.7742905,4.90674339 29.7742905,4.35569501 C29.7742905,3.80464662 30.1316,3.35804046 30.5724182,3.35804046 Z" id="Path" fill="#000000"></path>
                            <g id="Clipped" transform="translate(0.000000, 2.388889)">
                                <mask id="mask-3" fill="white">
                                    <use xlink:href="#path-2"></use>
                                </mask>
                                <g id="Path"></g>
                                <g id="Group" mask="url(#mask-3)" fill="#000000">
                                    <g transform="translate(-0.341270, 0.000000)" id="Path">
                                        <path d="M33.3082419,0.969151695 C33.7490943,0.969151695 34.1063696,1.41575786 34.1063696,1.96680625 C34.1063696,2.51785463 33.7490943,2.96447445 33.3082419,2.96447445 C32.8673895,2.96447445 32.5101142,2.51785463 32.5101142,1.96680625 C32.5101142,1.41575786 32.8673895,0.969151695 33.3082419,0.969151695 Z"></path>
                                        <path d="M3.35485641,13.4678723 L0.329438681,0.312442761 L1.8910853,0.312442761 L3.45253466,7.26089089 C3.94709265,9.56415505 4.2462839,11.1126669 4.35033707,11.9062216 C4.4153831,11.1646081 4.71457435,9.61626695 5.2481156,7.26089089 L6.80956155,0.312442761 L8.37121226,0.312442761 L5.32630051,13.4678723 L3.35485641,13.4678723 Z"></path>
                                    </g>
                                </g>
                            </g>
                            <path d="M14.3989588,7.60035198 C14.3989588,6.45528934 13.8131009,5.88274096 12.6421358,5.88274096 C11.4710002,5.88274096 10.8855518,6.45528934 10.8855518,7.60035198 L10.8855518,9.45464157 L14.3989588,9.45464157 L14.3989588,7.60035198 Z M10.8855518,10.7232439 L10.8855518,12.9678438 C10.8855518,14.1131112 11.4710002,14.6854548 12.6421358,14.6854548 C13.8131009,14.6854548 14.3989588,14.1131112 14.3989588,12.9678438 L14.3989588,12.2261962 L15.9017063,12.2261962 L15.9017063,12.9483573 C15.9017063,13.8982818 15.6218309,14.6530341 15.0624214,15.2124436 C14.5028072,15.7720579 13.6961136,16.0519333 12.6421358,16.0519333 C11.5881922,16.0519333 10.7814986,15.7720579 10.2218844,15.2124436 C9.66247489,14.6530341 9.38259951,13.8982818 9.38259951,12.9483573 L9.38259951,7.62004325 C9.38259951,6.66994806 9.66247489,5.91516159 10.2218844,5.3557521 C10.7814986,4.79617197 11.5881922,4.51646722 12.6421358,4.51646722 C13.6961136,4.51646722 14.5028072,4.79617197 15.0624214,5.3557521 C15.6218309,5.91516159 15.9017063,6.66994806 15.9017063,7.62004325 L15.9017063,10.6647502 L15.8627333,10.6647502 L15.8627333,10.7232439 L10.8855518,10.7232439 Z" id="Shape" fill="#000000"></path>
                            <path d="M17.5650554,4.71174182 L18.8140006,4.71174182 L19.2043109,2.54494463 L20.2779458,2.54494463 L20.2779458,4.71174182 L22.5422369,4.71174182 L22.5422369,6.03883778 L20.2779458,6.03883778 L20.2779458,13.1631525 C20.2779458,13.6445818 20.3789958,13.995885 20.5803449,14.2169254 C20.7820695,14.4383413 21.0977783,14.5491175 21.5272663,14.5491175 C21.9696885,14.5491175 22.3731377,14.4580326 22.7374091,14.2755897 L22.7374091,15.7003571 C22.3731377,15.8567269 21.9046425,15.9347071 21.3321282,15.9347071 C20.4733227,15.9347071 19.8291418,15.6971833 19.3996537,15.2223405 C18.9703363,14.7472587 18.7555069,14.0740699 18.7555069,13.2023303 L18.7555069,6.03883778 L17.5650554,6.03883778 L17.5650554,4.71174182 Z" id="Path" fill="#000000"></path>
                            <polygon id="Path" fill="#000000" points="41.6902042 15.8567611 43.2511723 15.8567611 43.2511723 2.70133152 41.6902042 2.70133152"></polygon>
                            <path d="M45.7554103,15.8567611 L45.7554103,4.71177594 L47.2194578,4.71177594 L47.2194578,5.86342509 C47.3494816,5.57716796 47.6064578,5.30381083 47.9903864,5.04362672 C48.3743149,4.78299895 48.8848546,4.65331642 49.5226879,4.65331642 C50.342418,4.65331642 50.9829814,4.90056641 51.4450608,5.39492987 C51.9071401,5.88929334 52.1378385,6.565656 52.1378385,7.42487104 L52.1378385,15.8567611 L50.6154338,15.8567611 L50.6154338,7.62004325 C50.6154338,6.52709251 50.0885132,5.98041238 49.034672,5.98041238 C48.5531403,5.98041238 48.1398625,6.12343857 47.79518,6.40969569 C47.4504975,6.69615758 47.277815,7.08667264 47.277815,7.58083135 L47.277815,15.8567611 L45.7554103,15.8567611 Z" id="Path" fill="#000000"></path>
                            <path d="M58.7550604,10.157282 C59.9781714,10.7168963 60.589727,11.5560105 60.589727,12.6754096 L60.589727,13.1242136 C60.589727,14.0609993 60.3194413,14.7831603 59.7795524,15.2908333 C59.2396635,15.7983015 58.4359731,16.0519674 57.3691636,16.0519674 C56.3153224,16.0519674 55.5246002,15.794923 54.9976796,15.2808682 C54.470759,14.7668476 54.2069575,14.0415128 54.2069575,13.1047271 L54.2069575,12.5777382 L55.7099098,12.5777382 L55.7099098,13.1242136 C55.7099098,13.6575501 55.8368621,14.0542421 56.0907669,14.3146651 C56.3443304,14.575054 56.7705764,14.7051461 57.3691636,14.7051461 C57.9807192,14.7051461 58.4230049,14.5782278 58.696362,14.3243913 C58.9697191,14.0707596 59.106227,13.6772413 59.106227,13.1437001 L59.106227,12.7923969 C59.106227,12.4539938 59.0215921,12.1709105 58.8523223,11.9435224 C58.6833937,11.7155541 58.3905842,11.5106557 57.974235,11.3286224 L56.0225129,10.4308098 C54.8772114,9.89726853 54.3049019,9.02552889 54.3049019,7.81521546 L54.3049019,7.46387818 C54.3049019,5.49881241 55.3457749,4.51667198 57.4275208,4.51667198 C59.4836715,4.51667198 60.5115762,5.50536479 60.5115762,7.48339881 L60.5115762,7.97117577 L59.0284175,7.97117577 L59.0284175,7.44418691 C59.0284175,6.8979163 58.9110207,6.49446712 58.6769096,6.234283 C58.4424572,5.97386 58.0261081,5.84376795 57.4275208,5.84376795 C56.8159653,5.84376795 56.3900605,5.97386 56.149124,6.234283 C55.9085288,6.49446712 55.7880606,6.8979163 55.7880606,7.44418691 L55.7880606,7.69805753 C55.7880606,8.43967098 56.1525367,8.96665985 56.8811478,9.27898999 L58.7550604,10.157282 Z" id="Path" fill="#000000"></path>
                            <g id="Clipped" transform="translate(62.452378, 1.365079)">
                                <mask id="mask-5" fill="white">
                                    <use xlink:href="#path-4"></use>
                                </mask>
                                <g id="Path"></g>
                                <g id="Group" mask="url(#mask-5)" fill="#000000">
                                    <path d="M0.25117459,14.4917159 L1.77357927,14.4917159 L1.77357927,3.4444022 L0.25117459,3.4444022 L0.25117459,14.4917159 Z M1.9496745,1.18012129 C1.9496745,1.7787188 1.64389674,2.0779237 1.03199995,2.0779237 C0.420444422,2.0779237 0.114666661,1.7787188 0.114666661,1.18012129 C0.114666661,0.581520366 0.420444422,0.282322287 1.03199995,0.282322287 C1.64389674,0.282322287 1.9496745,0.581520366 1.9496745,1.18012129 Z" id="Shape"></path>
                                    <path d="M9.05422968,6.0206481 C9.05422968,4.9667045 8.44915829,4.43971564 7.23901549,4.43971564 C6.0288727,4.43971564 5.4238013,4.9667045 5.4238013,6.0206481 L5.4238013,7.64058769 C5.4238013,8.69456542 6.0288727,9.22172491 7.23901549,9.22172491 C8.44915829,9.22172491 9.05422968,8.69456542 9.05422968,7.64058769 L9.05422968,6.0206481 Z M10.8107455,3.93221328 C10.4595788,3.93221328 10.1797376,4.01022757 9.97156297,4.16635851 C10.3619756,4.63468309 10.557182,5.25296163 10.557182,6.0206481 L10.557182,7.64058769 C10.557182,8.52546622 10.2872376,9.22172491 9.74700742,9.7290225 C9.20711856,10.2364907 8.39045988,10.4969137 7.29737263,10.5098479 C6.59469807,10.5098479 6.24387269,10.8353169 6.24387269,11.4858113 C6.24387269,11.7850367 6.33465046,11.999866 6.51688855,12.1297875 C6.69912663,12.2598795 7.01787265,12.3249255 7.47346786,12.3249255 L8.60511859,12.3249255 C10.4138487,12.3249255 11.3182137,13.0928168 11.3182137,14.6282238 L11.3182137,14.9015468 C11.3182137,16.593119 10.1148963,17.4387856 7.70757896,17.4387856 L6.9267536,17.4387856 C5.58658701,17.4387856 4.5518569,17.2306793 3.8235871,16.8141253 L3.8235871,15.3503508 C4.68222198,15.8578531 5.71012668,16.1116896 6.90730122,16.1116896 L7.59018214,16.1116896 C9.08665032,16.1116896 9.83505504,15.7018587 9.83505504,14.8818556 L9.83505504,14.7064087 C9.83505504,14.3550715 9.74700742,14.0883008 9.57159473,13.9062675 C9.39584077,13.7238588 9.0347773,13.6327398 8.48840431,13.6327398 L7.31716628,13.6327398 C5.67770605,13.6327398 4.85797593,13.0733303 4.85797593,11.9543065 L4.85797593,11.6419764 C4.85797593,11.3036073 4.95216641,11.020524 5.14088862,10.7929312 C5.32961083,10.5651336 5.57976161,10.4187288 5.8920235,10.3536828 C4.57813468,9.98941138 3.920849,9.08508047 3.920849,7.64058769 L3.920849,6.0206481 C3.920849,5.12286957 4.19761883,4.42002437 4.75047594,3.91272678 C5.30367432,3.40525855 6.13295999,3.15138793 7.23901549,3.15138793 C8.1368964,3.15138793 8.85253922,3.32048713 9.38594395,3.65889028 C9.63336457,2.8651308 10.2254677,2.46847289 11.1622534,2.46847289 L11.4745153,2.46847289 L11.4745153,3.93221328 L10.8107455,3.93221328 Z" id="Shape"></path>
                                </g>
                            </g>
                            <path d="M75.7793055,15.8567611 L75.7793055,1.74504911 L77.3017102,1.74504911 L77.3017102,5.90222747 C77.419107,5.61593621 77.6627737,5.34240845 78.033734,5.08239497 C78.4046943,4.82238149 78.9087498,4.69187991 79.5465831,4.69187991 C80.3663132,4.69187991 81.0068767,4.93936879 81.468956,5.43390289 C81.9310354,5.92847112 82.1617338,6.60503854 82.1617338,7.46404881 L82.1617338,15.8567611 L80.6393291,15.8567611 L80.6393291,7.67870753 C80.6393291,6.58555203 80.1124085,6.0388719 79.0585673,6.0388719 C78.5770355,6.0388719 78.1637578,6.17892904 77.8190753,6.45842902 C77.4743927,6.73833853 77.3017102,7.12527026 77.3017102,7.62000912 L77.3017102,15.8567611 L75.7793055,15.8567611 Z" id="Path" fill="#000000"></path>
                            <path d="M83.8991384,4.71174182 L85.1485273,4.71174182 L85.5385987,2.54494463 L86.6122335,2.54494463 L86.6122335,4.71174182 L88.8762175,4.71174182 L88.8762175,6.03883778 L86.6122335,6.03883778 L86.6122335,13.1631525 C86.6122335,13.6445818 86.7129081,13.995885 86.9145986,14.2169254 C87.1162891,14.4383413 87.4323049,14.5491175 87.8612811,14.5491175 C88.303908,14.5491175 88.707289,14.4580326 89.0714239,14.2755897 L89.0714239,15.7003571 C88.707289,15.8567269 88.2387255,15.9347071 87.6660747,15.9347071 C86.8074399,15.9347071 86.1631224,15.6971833 85.733805,15.2223405 C85.3044876,14.7472587 85.0898289,14.0740699 85.0898289,13.2023303 L85.0898289,6.03883778 L83.8991384,6.03883778 L83.8991384,4.71174182 Z" id="Path" fill="#000000"></path>
                            <path d="M92.4073707,5.801587 L92.4073707,3.92147426 L93.1577531,3.92147426 L93.1577531,3.41269823 L91.1190428,3.41269823 L91.1190428,3.92147426 L91.8659989,3.92147426 L91.8659989,5.801587 L92.4073707,5.801587 Z M94.0006485,5.801587 L94.0006485,4.23819576 L94.6345332,5.801587 L95.0731129,5.801587 L95.7069976,4.21797949 L95.7069976,5.801587 L96.2380902,5.801587 L96.2380902,3.41269823 L95.4945605,3.41269823 L94.8606758,5.02663013 L94.1925271,3.41269823 L93.4866879,3.41269823 L93.4866879,5.801587 L94.0006485,5.801587 Z" id="TM" fill="#000000" fill-rule="nonzero"></path>
                        </g>
                    </g>
                </g>
            </g>
        </g>
    </g>
</svg>