<svg width="28px" height="28px" viewBox="0 0 28 28" version="1.1" xmlns="http://www.w3.org/2000/svg" xmlns:xlink="http://www.w3.org/1999/xlink">
    <title>B2F68C75-7E36-4D31-8281-3D3458D8DE71</title>
    <g id="TSC-Mobile" stroke="none" stroke-width="1" fill="none" fill-rule="evenodd">
        <g id="04---00---TSC---Ask-a-Vet" transform="translate(-28.000000, -292.000000)" fill="#000000">
            <g id="Card" transform="translate(16.000000, 47.000000)">
                <g id="Bubble-Copy-3" transform="translate(12.000000, 109.000000)">
                    <g id="Avatar" transform="translate(0.000000, 136.000000)">
                        <circle id="Oval" fill-opacity="0.08" cx="14" cy="14" r="14"></circle>
                        <g id="Robot" transform="translate(5.000000, 5.000000)" fill-rule="nonzero" opacity="0.800000012">
                            <path d="M6.39999962,10.3999994 L6.39999958,10.3999994 C5.95817161,10.3999994 5.59999963,10.7581714 5.59999963,11.1999993 C5.59999963,11.6418273 5.95817161,11.9999993 6.39999958,11.9999993 C6.84182756,11.9999993 7.19999954,11.6418273 7.19999954,11.1999993 L7.19999954,11.1999994 C7.19999954,10.7581714 6.84182756,10.3999994 6.39999958,10.3999994 L6.39999962,10.3999994 Z M0.799999952,9.59999943 L0.799999917,9.59999943 C0.358171944,9.59999943 -3.49691049e-08,9.95817141 -3.49691049e-08,10.3999994 C-3.49691049e-08,10.3999994 -3.49691049e-08,10.3999994 -3.49691049e-08,10.3999994 L-3.49691049e-08,11.9999993 L-3.49691049e-08,11.9999994 C-3.49691049e-08,12.4418274 0.358171944,12.7999994 0.799999917,12.7999994 C1.24182789,12.7999994 1.59999987,12.4418274 1.59999987,11.9999994 L1.59999987,10.3999995 L1.59999987,10.3999995 C1.59999987,9.95817153 1.24182789,9.59999943 0.799999917,9.59999943 L0.799999952,9.59999943 Z M16.799999,9.59999943 L16.799999,9.59999943 C16.358171,9.59999943 15.999999,9.95817141 15.999999,10.3999994 C15.999999,10.3999994 15.999999,10.3999994 15.999999,10.3999994 L15.999999,11.9999993 L15.999999,11.9999994 C15.999999,12.4418274 16.358171,12.7999994 16.799999,12.7999994 C17.2418269,12.7999994 17.5999989,12.4418274 17.5999989,11.9999994 L17.5999989,10.3999995 L17.5999989,10.3999995 C17.5999989,9.95817153 17.2418269,9.59999943 16.799999,9.59999943 L16.799999,9.59999943 Z M12.7999992,3.99999998 L9.59999943,3.99999998 L9.59999943,2.97599982 L9.59999946,2.9759998 C10.0920706,2.69191582 10.3965698,2.16817585 10.3999989,1.59999989 L10.3999989,1.59999989 C10.3999989,0.716343938 9.68365466,-1.94463183e-08 8.79999951,-1.94463183e-08 C7.91634356,-1.94463183e-08 7.1999996,0.716344738 7.1999996,1.59999989 L7.19999954,1.59998996 C7.20342556,2.16816753 7.50792113,2.6919099 7.9999907,2.97599788 L7.9999907,3.99999998 L4.79999889,3.99999998 L4.79999878,3.99999998 C3.47451886,3.99999998 2.39999893,5.07452576 2.39999893,6.40000568 C2.39999893,6.40000568 2.39999893,6.40000568 2.39999893,6.40000568 L2.39999893,13.6000052 L2.39999893,13.6000056 C2.39999893,14.9254855 3.47451886,16 4.79999878,16 L12.7999983,16 L12.7999982,16 C14.1254781,16 15.1999981,14.9254855 15.1999981,13.6000056 L15.1999981,6.40000604 L15.1999981,6.40000604 C15.1999981,5.07452612 14.1254781,3.99999998 12.7999982,3.99999998 L12.7999992,3.99999998 Z M10.1759994,5.59999967 L9.77599942,7.19999957 L7.82399953,7.19999957 L7.42399956,5.59999967 L10.1759994,5.59999967 Z M13.5999992,13.5999998 L13.5999992,13.5999998 C13.5999992,14.0418272 13.2418272,14.3999991 12.7999992,14.3999991 L4.79999971,14.3999991 L4.79999968,14.3999991 C4.35817171,14.3999991 3.99999973,14.0418272 3.99999973,13.5999998 C3.99999973,13.5999998 3.99999973,13.5999998 3.99999973,13.5999998 L3.99999973,6.39999962 L3.99999973,6.39999974 C3.99999973,5.95817177 4.35817171,5.59999979 4.79999968,5.59999979 L5.77599962,5.59999979 L6.39999958,8.19199963 L6.39999959,8.19199964 C6.49025238,8.55774602 6.82344196,8.8109708 7.19999954,8.7999996 L10.3999993,8.7999996 L10.3999994,8.7999996 C10.7765569,8.81097048 11.1097465,8.55774602 11.1999993,8.19199964 L11.8239993,5.59999979 L12.7999992,5.59999979 L12.7999992,5.59999979 C13.2418272,5.59999979 13.5999992,5.95817177 13.5999992,6.39999975 L13.5999992,13.5999998 Z M11.1999993,10.3999994 L11.1999993,10.3999994 C10.7581713,10.3999994 10.3999993,10.7581714 10.3999993,11.1999993 C10.3999993,11.6418273 10.7581713,11.9999993 11.1999993,11.9999993 C11.6418273,11.9999993 11.9999992,11.6418273 11.9999992,11.1999993 L11.9999992,11.1999994 C11.9999992,10.7581714 11.6418273,10.3999994 11.1999993,10.3999994 L11.1999993,10.3999994 Z" id="Shape"></path>
                        </g>
                    </g>
                </g>
            </g>
        </g>
    </g>
</svg>
