<?xml version="1.0" encoding="UTF-8"?>
<svg width="29px" height="24px" viewBox="0 0 29 24" version="1.1" xmlns="http://www.w3.org/2000/svg" xmlns:xlink="http://www.w3.org/1999/xlink">
    <title>2EC0369C-BD39-46EC-B95D-96911AEDB663</title>
    <defs>
        <path d="M6.71869476,4.51047676 L6.15967428,4.51047676 L6.15967428,3.93981002 L6.15967428,3.93981002 C6.15967428,3.62463934 5.90939243,3.36914329 5.60065381,3.36914329 C5.29191518,3.36914329 5.04163333,3.62463934 5.04163333,3.93981002 L5.04163333,4.51047676 L4.48261285,4.51047676 L4.48261282,4.51047676 C4.1738742,4.51047678 3.92359235,4.76597282 3.92359235,5.0811435 C3.92359235,5.39631418 4.1738742,5.65181024 4.48261282,5.65181024 L5.0416333,5.65181024 L5.0416333,6.22247698 L5.0416333,6.22247706 C5.04163335,6.53764774 5.29191516,6.7931438 5.60065378,6.7931438 C5.90939241,6.7931438 6.15967426,6.53764774 6.15967426,6.22247706 L6.15967426,5.65181033 L6.71869474,5.65181033 L6.71869471,5.65181033 C7.02743334,5.65181034 7.27771519,5.39631427 7.27771519,5.08114359 C7.27771519,4.76597291 7.02743334,4.51047685 6.71869471,4.51047685 L6.71869476,4.51047676 Z M5.60065383,0.749782978 C4.04741,-0.42957961 1.85170054,-0.100259248 0.69640087,1.48534399 C-0.344226931,2.91356876 -0.198210782,4.90548101 1.03904409,6.15969807 L4.39316696,9.61223184 C5.04793093,10.2798036 6.10864992,10.2798036 6.76341384,9.61223179 L10.1175367,6.15969802 C11.5021633,4.77870743 11.5279565,2.51334309 10.1751498,1.09987006 C10.1708642,1.09539222 10.166567,1.09092588 10.1622584,1.08647109 C8.93068851,-0.157782576 6.99475587,-0.30067182 5.60065383,0.749782978 Z M9.37404204,5.3436502 L6.01991916,8.76765063 L6.01991915,8.76765065 C5.8025049,8.99142163 5.4485555,8.99290308 5.22935239,8.77095952 C5.2282675,8.76986108 5.22718703,8.7687581 5.22611101,8.76765062 L1.87198814,5.34365018 L1.87198813,5.34365017 C0.960119512,4.39212045 0.960119512,2.87117946 1.87198815,1.91964974 L1.87198816,1.91964973 C2.8016504,0.982666302 4.2964488,0.982666302 5.22611103,1.91964976 L5.22611102,1.91964974 C5.44352526,2.14342072 5.79747467,2.14490217 6.01667778,1.92295869 C6.01776266,1.92186024 6.01884313,1.92075727 6.01991916,1.91964978 L6.01991917,1.91964976 C6.94958141,0.982666338 8.44437981,0.982666338 9.37404204,1.91964979 L9.37404209,1.91964984 C10.2932227,2.87257199 10.2932227,4.40214146 9.37404199,5.35506361 L9.37404204,5.3436502 Z" id="path-1"></path>
    </defs>
    <g id="Barkibu-Widget-Desktop" stroke="none" stroke-width="1" fill="none" fill-rule="evenodd">
        <g id="00---05---Ask-a-Vet" transform="translate(-1336.000000, -920.000000)">
            <g id="Group" transform="translate(1320.000000, 902.000000)">
                <g id="Assitant-logo" transform="translate(16.000000, 18.000000)">
                    <g id="Fill-93-+-Group-+-Fill-97-+-Fill-98">
                        <path d="M1.69534165,18.2613356 C2.08508499,17.3753334 2.63163744,15.8643048 2.76431226,15.130821 L2.76431226,15.130821 L5.43673879,15.130821 C5.55925748,14.8861535 5.75728373,14.8016604 5.97122409,14.6090685 C6.03399241,14.5061934 6.10158537,14.3055868 5.97122409,14.0873161 C6.03029592,13.5041974 6.0746538,11.6432737 7.0401947,10.9568014 C7.15772535,10.8330721 7.2659797,10.5847761 7.0401947,10.4350489 C7.21264463,10.0840373 7.05580784,9.86839826 7.0401947,9.91329649 C6.7785711,9.7398442 5.7683732,9.25050939 4.90225348,8.34803915 L5.43673879,8.34803915 C6.98187804,9.10018408 9.56889295,9.57552308 11.8505625,9.39154404 L18.2643861,9.39154404 L18.2643861,8.34803915 L11.8505625,8.34803915 L11.8505625,2.08700979 C11.900322,1.73165191 12.0693044,1.56525734 12.3850478,1.56525734 L19.3333567,1.56525734 C19.6999158,1.56525734 19.867842,1.73165191 19.867842,2.08700979 L19.867842,21.3918503 C19.867842,21.7456531 19.6999158,21.9136028 19.3333567,21.9136028 L12.3850478,21.9136028 C12.0693044,21.9136028 11.900322,21.7456531 11.8505625,21.3918503 L11.8505625,15.130821 L11.8505625,15.130821 C13.1344215,14.5046383 14.6182982,14.5715071 16.6609302,15.130821 C17.287692,15.2728525 17.8664568,15.4247329 18.2643861,15.6525734 L18.2643861,14.0873161 L17.1954155,13.5655636 C15.7716031,13.3834188 14.6161859,13.2128773 13.4540184,13.0438112 C11.2682222,13.2128773 10.135512,14.1417841 9.17813592,15.130821 C8.43407053,15.5346258 7.92976368,15.9482796 7.0401947,16.1743258 L4.36776817,16.1743258 C3.78969493,15.9482796 3.50928977,16.1447393 3.29879756,16.6960783 C3.40420384,16.4536837 2.8856391,17.9719694 2.76431226,18.7830881 C2.44734101,19.0397975 2.07874815,18.9169454 2.22982695,18.7830881 C1.79781491,18.8111993 1.60612551,18.6520618 1.69534165,18.2613356 L1.69534165,18.2613356 Z M4.12947783,19.826593 C4.56238437,19.5145273 4.27272092,18.0315599 5.01664283,18.0315599 C6.42918698,18.0315599 9.57907186,16.983421 10.2471065,16.5890138 C10.1350067,16.4609687 10.2471065,21.3918503 10.2471065,21.3918503 C10.4142668,22.6593061 11.2493775,23.4788601 12.3850478,23.4788601 L19.3333567,23.4788601 C20.600588,23.4788601 21.4373006,22.6593061 21.471298,21.3918503 L21.471298,16.1743258 L21.471298,2.08700979 C21.4373006,0.820602038 20.600588,0 19.3333567,0 L12.3850478,0 C11.2493775,0 10.4142668,0.820602038 10.2471065,2.08700979 L10.2471065,7.8262867 C8.45570802,7.94087055 6.81805812,7.61441138 5.97122409,7.30453425 C4.84027683,6.73459604 4.50334918,6.38874843 4.36776817,6.26102936 C3.83696931,5.69967329 3.55343749,5.58858285 3.29879756,5.73927691 C2.91749323,5.80761966 2.70978348,6.16394749 2.76431226,6.26102936 C3.20743255,8.59850501 4.62135395,10.1275706 5.43673879,10.4350489 C4.69824394,11.5146291 4.54766772,12.6265816 4.36776817,13.5655636 L2.22982695,13.5655636 C2.02364715,13.468144 1.74064929,13.6672684 1.69534165,14.0873161 C1.42668185,14.5879567 0.682344075,16.6646143 0.0918857298,17.7395832 C-0.208298256,19.0289543 0.451674118,19.9821312 1.16085634,20.3483454 C1.35228198,20.3752927 2.10294172,20.4781442 2.76431226,20.3483454 C3.49363359,20.2052108 4.12947783,19.826593 4.12947783,19.826593 Z" id="Fill-97" fill="#FFFFFF"></path>
                        <polygon id="Fill-98" fill="#F6F7F9" points="14.3725037 19.3048405 17.0449302 19.3048405 17.0449302 20.3483454 14.3725037 20.3483454"></polygon>
                    </g>
                    <g id="Heart-Medical" transform="translate(15.314745, 5.924572)" fill-rule="nonzero">
                        <g id="Shape">
                            <use fill="#FFFFFF" xlink:href="#path-1"></use>
                            <path stroke="#2882DE" stroke-width="1.5" d="M2.88805357,-0.661002558 C3.80100868,-0.797931504 4.75747297,-0.634957678 5.60260279,-0.147880039 C6.34639593,-0.572771143 7.18056298,-0.75065974 7.9976125,-0.690354018 C8.98435379,-0.617523493 9.94698494,-0.19715542 10.7040759,0.56788281 C11.5266424,1.42729463 11.931009,2.53885437 11.921267,3.6439882 C11.911486,4.75354211 11.4843094,5.85578284 10.6554781,6.68230596 L10.6554781,6.68230596 L7.29885547,10.1374006 C6.82356154,10.6219917 6.20057095,10.8629106 5.5782904,10.8629106 C4.95600988,10.8629106 4.33301931,10.6219918 3.85522556,10.1348398 L3.85522556,10.1348398 L0.505115833,6.68640541 C-0.242021166,5.92902551 -0.660688504,4.94922468 -0.734476756,3.94260204 C-0.808192819,2.93696423 -0.537594869,1.90535893 0.0902370448,1.04368188 C0.791967332,0.080584738 1.81035292,-0.499364365 2.88805357,-0.661002558 Z M7.63622368,1.96826621 C7.1870509,1.98548083 6.75288243,2.19130224 5.64222189,2.73685234 C6.27991185,2.63828048 6.39356855,2.87043341 6.53170997,3.01145277 C6.72818364,3.21201965 6.86229193,3.47692948 6.89931469,3.77293309 C7.19047483,3.81343557 7.45165826,3.95056679 7.64975087,4.15278634 C7.88248942,4.3903736 8.02771519,4.71824865 8.02771519,5.08114359 C8.02771519,5.44403854 7.88248941,5.7719136 7.64975085,6.00950087 C7.45165823,6.21172041 7.19047479,6.34885162 6.89931465,6.38935409 C6.86229188,6.68535766 6.72818359,6.95026746 6.53170994,7.15083431 C6.29343196,7.39407642 5.96386941,7.5431438 5.60065378,7.5431438 L5.707,7.537 L5.96705315,7.75149408 L8.83914983,4.82933518 C9.15522255,4.50161248 9.31307014,4.06664914 9.2968132,3.62236416 C9.28045695,3.17536528 9.08942775,2.72342742 8.72928036,2.34451875 C8.41352525,2.0792866 8.02300768,1.95344265 7.63622368,1.96826621 Z M3.47649517,1.98506559 C3.06758382,2.01627717 2.65941758,2.20918788 2.31205163,2.55449549 C2.0481478,2.88476365 1.92470326,3.29238947 1.93923273,3.69522428 C1.95353741,4.09182691 2.10193731,4.48479911 2.38626459,4.79565376 L3.24168803,5.50256129 C3.19758253,5.37034753 3.17359235,5.22863802 3.17359235,5.0811435 C3.17359235,4.71824857 3.31881811,4.39037355 3.55155664,4.15278628 C3.74964927,3.95056671 4.01083274,3.81343547 4.30199293,3.772933 C4.33901571,3.47692942 4.473124,3.21201962 4.66959765,3.01145277 C4.94488706,2.91041948 5.17525121,2.83948743 5.369054,2.79222498 L5.48513711,2.81404023 C5.20791397,2.77688499 4.89383509,2.64582575 4.58896286,2.35094532 C4.27176436,2.08128035 3.87686453,1.95450601 3.47649517,1.98506559 Z"></path>
                            <use stroke="#FFFFFF" stroke-width="0.5" xlink:href="#path-1"></use>
                        </g>
                    </g>
                </g>
            </g>
        </g>
    </g>
</svg>