<svg width="50" height="50" viewBox="25 25 50 50" fill="none" xmlns="http://www.w3.org/2000/svg">
<g clip-path="url(#clip0)">
<path d="M32.8764 65.7756C31.3945 64.8252 27.9314 62.5702 26.5623 55.5474C25.1932 48.5246 26.063 35.6709 31.6844 32.8682C37.3059 30.0655 46.6965 29.8561 52.8334 30.0655C58.9704 30.2749 68.8603 31.0641 71.2442 35.4776C73.6281 39.891 74.9972 50.7313 73.1126 57.7541C71.2442 64.7769 66.7985 67.9823 55.8938 68.7876C44.973 69.593 39.0133 68.1917 39.0133 68.1917C39.0133 68.1917 37.1448 69.593 35.5985 70.2051C34.0522 70.8172 32.2643 70.495 31.8455 70.2051C31.2495 69.7863 34.761 66.9836 32.8764 65.7756Z" fill="white"/>
<path d="M50.306 44.1906C52.8832 43.9812 56.8456 45.8175 58.6496 50.8107C60.4537 55.804 60.2765 59.9114 56.6845 60.9262C54.5745 61.5383 53.5114 58.655 49.5812 58.655C45.651 58.655 42.9288 61.3772 40.5127 58.8C38.0966 56.2228 40.851 53.2107 42.6711 50.0537C44.4912 46.8967 46.5369 44.4967 50.306 44.1906Z" fill="#485FC5"/>
<path d="M36.0832 43.0631C37.3718 41.6456 40.0295 41.1624 41.6564 45.1087C43.2832 49.055 39.6107 51.6322 37.3074 50.9557C35.004 50.2631 33.2322 46.1879 36.0832 43.0631Z" fill="#485FC5"/>
<path d="M43.1543 35.8631C44.4429 34.4456 48.357 34.0591 48.7275 38.3114C49.1302 43.0631 46.0054 44.1584 44.3785 43.7396C42.0429 43.1597 40.2872 38.9879 43.1543 35.8631Z" fill="#485FC5"/>
<path d="M52.255 35.1866C53.5436 33.7691 57.4577 33.3826 57.8282 37.6349C58.2309 42.3866 55.106 43.4819 53.4792 43.0631C51.1436 42.4832 49.404 38.3114 52.255 35.1866Z" fill="#485FC5"/>
<path d="M63.1436 49.3772C61.5973 50.5208 58.9235 50.5047 58.0537 46.3329C57.1839 42.1611 61.2752 40.3087 63.4174 41.404C65.5597 42.4993 66.5423 46.8483 63.1436 49.3772Z" fill="#485FC5"/>
</g>
<defs>
<clipPath id="clip0">
<rect width="48" height="40.5423" fill="white" transform="translate(26 30)"/>
</clipPath>
</defs>
</svg>
